<svg width="456" height="192" viewBox="0 0 456 192" fill="none" xmlns="http://www.w3.org/2000/svg">
<g filter="url(#filter0_d)">
<rect x="48" y="42" width="360" height="96" rx="16" fill="white"/>
</g>
<path d="M165.406 87.5078H167.688C167.643 85.2962 165.757 83.7301 162.97 83.7301C160.222 83.7301 158.157 85.277 158.163 87.5909C158.163 89.4702 159.499 90.5504 161.653 91.1065L163.143 91.4901C164.555 91.848 165.489 92.2891 165.495 93.3054C165.489 94.424 164.428 95.1719 162.881 95.1719C161.398 95.1719 160.247 94.5071 160.151 93.1328H157.818C157.914 95.7344 159.851 97.1982 162.9 97.1982C166.038 97.1982 167.86 95.6321 167.866 93.3246C167.86 91.0554 165.987 90.0199 164.018 89.5533L162.791 89.2464C161.717 88.9908 160.554 88.5369 160.567 87.4439C160.573 86.4595 161.455 85.7372 162.938 85.7372C164.351 85.7372 165.284 86.3956 165.406 87.5078ZM169.878 97H172.192V91.0298C172.192 89.8217 172.998 89.0036 173.995 89.0036C174.973 89.0036 175.644 89.6619 175.644 90.6719V97H177.913V90.8764C177.913 89.7706 178.572 89.0036 179.69 89.0036C180.623 89.0036 181.365 89.5533 181.365 90.7678V97H183.685V90.4098C183.685 88.2173 182.42 87.054 180.617 87.054C179.192 87.054 178.105 87.7571 177.67 88.8501H177.568C177.191 87.7379 176.238 87.054 174.915 87.054C173.599 87.054 172.614 87.7315 172.205 88.8501H172.09V87.1818H169.878V97ZM188.858 97.1982C190.398 97.1982 191.319 96.4759 191.741 95.6513H191.817V97H194.042V90.429C194.042 87.8338 191.926 87.054 190.053 87.054C187.989 87.054 186.403 87.9744 185.892 89.7642L188.053 90.071C188.283 89.3999 188.935 88.8246 190.066 88.8246C191.14 88.8246 191.728 89.3743 191.728 90.3395V90.3778C191.728 91.0426 191.031 91.0746 189.299 91.2599C187.394 91.4645 185.572 92.0334 185.572 94.245C185.572 96.1754 186.985 97.1982 188.858 97.1982ZM189.459 95.4979C188.494 95.4979 187.803 95.0568 187.803 94.2067C187.803 93.3182 188.577 92.9474 189.612 92.8004C190.219 92.7173 191.434 92.5639 191.734 92.321V93.478C191.734 94.571 190.852 95.4979 189.459 95.4979ZM196.369 97H198.683V91.228C198.683 89.9815 199.622 89.0994 200.894 89.0994C201.284 89.0994 201.77 89.1697 201.968 89.2337V87.1051C201.757 87.0668 201.393 87.0412 201.137 87.0412C200.012 87.0412 199.072 87.6804 198.714 88.8182H198.612V87.1818H196.369V97ZM208.935 87.1818H206.999V84.8295H204.685V87.1818H203.291V88.9716H204.685V94.4304C204.672 96.2777 206.014 97.1854 207.753 97.1342C208.411 97.1151 208.865 96.9872 209.114 96.9041L208.724 95.0952C208.597 95.1271 208.335 95.1847 208.047 95.1847C207.465 95.1847 206.999 94.9801 206.999 94.0469V88.9716H208.935V87.1818ZM217.119 97L218.199 93.772H223.121L224.208 97H226.739L222.124 83.9091H219.196L214.588 97H217.119ZM218.838 91.8672L220.609 86.5938H220.711L222.482 91.8672H218.838ZM230.675 83.9091H228.361V97H230.675V83.9091ZM237.401 97.1918C239.689 97.1918 241.262 96.0732 241.671 94.3665L239.51 94.1236C239.197 94.9545 238.43 95.3892 237.433 95.3892C235.937 95.3892 234.946 94.4048 234.927 92.7237H241.767V92.0142C241.767 88.5689 239.695 87.054 237.279 87.054C234.467 87.054 232.632 89.1186 232.632 92.1484C232.632 95.2294 234.441 97.1918 237.401 97.1918ZM234.933 91.1641C235.004 89.9112 235.931 88.8565 237.311 88.8565C238.641 88.8565 239.536 89.8281 239.548 91.1641H234.933ZM243.724 97H246.038V91.228C246.038 89.9815 246.978 89.0994 248.25 89.0994C248.64 89.0994 249.125 89.1697 249.324 89.2337V87.1051C249.113 87.0668 248.748 87.0412 248.493 87.0412C247.368 87.0412 246.428 87.6804 246.07 88.8182H245.968V87.1818H243.724V97ZM256.291 87.1818H254.354V84.8295H252.04V87.1818H250.647V88.9716H252.04V94.4304C252.027 96.2777 253.37 97.1854 255.108 97.1342C255.767 97.1151 256.221 96.9872 256.47 96.9041L256.08 95.0952C255.952 95.1271 255.69 95.1847 255.402 95.1847C254.821 95.1847 254.354 94.9801 254.354 94.0469V88.9716H256.291V87.1818ZM265.845 89.777C265.526 88.1151 264.196 87.054 261.895 87.054C259.53 87.054 257.919 88.2173 257.926 90.0327C257.919 91.4645 258.801 92.4105 260.687 92.8004L262.362 93.152C263.263 93.3501 263.685 93.7145 263.685 94.2706C263.685 94.9418 262.956 95.4467 261.857 95.4467C260.796 95.4467 260.105 94.9865 259.907 94.1044L257.651 94.3217C257.938 96.1243 259.453 97.1918 261.863 97.1918C264.318 97.1918 266.05 95.9197 266.056 94.0597C266.05 92.6598 265.149 91.8033 263.295 91.4006L261.62 91.0426C260.623 90.8189 260.227 90.4737 260.233 89.9048C260.227 89.2401 260.962 88.7798 261.927 88.7798C262.994 88.7798 263.557 89.3615 263.736 90.0071L265.845 89.777Z" fill="#262B35"/>
<rect opacity="0.6" x="71.75" y="62.5" width="55" height="55" rx="24" fill="#FAE3AF"/>
<path fill-rule="evenodd" clip-rule="evenodd" d="M98.5859 74.6667C98.5859 74.2985 98.8833 74 99.25 74C99.6167 74 99.9141 74.2985 99.9141 74.6667V80C99.9141 80.3681 99.6167 80.6667 99.25 80.6667C98.8833 80.6667 98.5859 80.3681 98.5859 80V74.6667ZM92.2067 82.6526L88.4501 78.8813C88.1907 78.621 87.7703 78.6209 87.5109 78.8813C87.2516 79.1416 87.2516 79.5637 87.5109 79.8241L91.2675 83.5955C91.5269 83.8558 91.9473 83.8558 92.2067 83.5955C92.466 83.3351 92.466 82.913 92.2067 82.6526ZM110.05 78.8813C110.31 78.621 110.73 78.621 110.989 78.8813C111.249 79.1416 111.249 79.5638 110.989 79.8242L107.233 83.5955C106.973 83.8558 106.553 83.8558 106.294 83.5955C106.034 83.3351 106.034 82.913 106.294 82.6526L110.05 78.8813ZM109.082 100.667H109.875C110.973 100.667 111.867 101.564 111.867 102.667V105.333C111.867 105.701 111.57 106 111.203 106H87.2969C86.9301 106 86.6328 105.701 86.6328 105.333V102.667C86.6328 101.564 87.5265 100.667 88.625 100.667H89.4183L91.5804 88.5009C91.9824 86.2784 93.9057 84.6667 96.1541 84.6667H102.346C104.594 84.6667 106.517 86.2783 106.92 88.4986L109.082 100.667ZM96.1541 86C94.5482 86 93.1743 87.1512 92.8875 88.7371L90.7674 100.667H107.733L105.613 88.735C105.326 87.1512 103.952 86 102.346 86H96.1541ZM87.9609 104.667H110.539V102.667C110.539 102.299 110.241 102 109.875 102H88.625C88.2588 102 87.9609 102.299 87.9609 102.667V104.667ZM103.234 90.6667C103.234 90.2987 103.532 90 103.898 90C104.265 90 104.562 90.2987 104.562 90.6667C104.562 91.0347 104.265 91.3333 103.898 91.3333C103.532 91.3333 103.234 91.0347 103.234 90.6667ZM106.039 98.5475L105.065 93.1642C105 92.8018 104.653 92.5613 104.293 92.6274C103.932 92.6932 103.693 93.0402 103.758 93.4025L104.733 98.7858C104.799 99.1509 105.147 99.3882 105.505 99.3226C105.865 99.2568 106.105 98.9097 106.039 98.5475ZM109.875 90H115.586C115.953 90 116.25 90.2985 116.25 90.6667C116.25 91.0348 115.953 91.3333 115.586 91.3333H109.875C109.508 91.3333 109.211 91.0348 109.211 90.6667C109.211 90.2985 109.508 90 109.875 90ZM88.625 90H82.9141C82.5473 90 82.25 90.2985 82.25 90.6667C82.25 91.0348 82.5473 91.3333 82.9141 91.3333H88.625C88.9917 91.3333 89.289 91.0348 89.289 90.6667C89.289 90.2985 88.9917 90 88.625 90Z" fill="#D69026"/>
<defs>
<filter id="filter0_d" x="0" y="0" width="456" height="192" filterUnits="userSpaceOnUse" color-interpolation-filters="sRGB">
<feFlood flood-opacity="0" result="BackgroundImageFix"/>
<feColorMatrix in="SourceAlpha" type="matrix" values="0 0 0 0 0 0 0 0 0 0 0 0 0 0 0 0 0 0 127 0" result="hardAlpha"/>
<feOffset dy="6"/>
<feGaussianBlur stdDeviation="24"/>
<feColorMatrix type="matrix" values="0 0 0 0 0 0 0 0 0 0 0 0 0 0 0 0 0 0 0.1 0"/>
<feBlend mode="normal" in2="BackgroundImageFix" result="effect1_dropShadow"/>
<feBlend mode="normal" in="SourceGraphic" in2="effect1_dropShadow" result="shape"/>
</filter>
</defs>
</svg>
