<svg width="456" height="192" viewBox="0 0 456 192" fill="none" xmlns="http://www.w3.org/2000/svg">
<g filter="url(#filter0_d)">
<rect x="48" y="42" width="360" height="96" rx="16" fill="white"/>
</g>
<path d="M165.406 87.5078H167.688C167.643 85.2962 165.757 83.7301 162.97 83.7301C160.222 83.7301 158.157 85.277 158.163 87.5909C158.163 89.4702 159.499 90.5504 161.653 91.1065L163.143 91.4901C164.555 91.848 165.489 92.2891 165.495 93.3054C165.489 94.424 164.428 95.1719 162.881 95.1719C161.398 95.1719 160.247 94.5071 160.151 93.1328H157.818C157.914 95.7344 159.851 97.1982 162.9 97.1982C166.038 97.1982 167.86 95.6321 167.866 93.3246C167.86 91.0554 165.987 90.0199 164.018 89.5533L162.791 89.2464C161.717 88.9908 160.554 88.5369 160.567 87.4439C160.573 86.4595 161.455 85.7372 162.938 85.7372C164.351 85.7372 165.284 86.3956 165.406 87.5078ZM169.878 97H172.192V91.0298C172.192 89.8217 172.998 89.0036 173.995 89.0036C174.973 89.0036 175.644 89.6619 175.644 90.6719V97H177.913V90.8764C177.913 89.7706 178.572 89.0036 179.69 89.0036C180.623 89.0036 181.365 89.5533 181.365 90.7678V97H183.685V90.4098C183.685 88.2173 182.42 87.054 180.617 87.054C179.192 87.054 178.105 87.7571 177.67 88.8501H177.568C177.191 87.7379 176.238 87.054 174.915 87.054C173.599 87.054 172.614 87.7315 172.205 88.8501H172.09V87.1818H169.878V97ZM188.858 97.1982C190.398 97.1982 191.319 96.4759 191.741 95.6513H191.817V97H194.042V90.429C194.042 87.8338 191.926 87.054 190.053 87.054C187.989 87.054 186.403 87.9744 185.892 89.7642L188.053 90.071C188.283 89.3999 188.935 88.8246 190.066 88.8246C191.14 88.8246 191.728 89.3743 191.728 90.3395V90.3778C191.728 91.0426 191.031 91.0746 189.299 91.2599C187.394 91.4645 185.572 92.0334 185.572 94.245C185.572 96.1754 186.985 97.1982 188.858 97.1982ZM189.459 95.4979C188.494 95.4979 187.803 95.0568 187.803 94.2067C187.803 93.3182 188.577 92.9474 189.612 92.8004C190.219 92.7173 191.434 92.5639 191.734 92.321V93.478C191.734 94.571 190.852 95.4979 189.459 95.4979ZM196.369 97H198.683V91.228C198.683 89.9815 199.622 89.0994 200.894 89.0994C201.284 89.0994 201.77 89.1697 201.968 89.2337V87.1051C201.757 87.0668 201.393 87.0412 201.137 87.0412C200.012 87.0412 199.072 87.6804 198.714 88.8182H198.612V87.1818H196.369V97ZM208.935 87.1818H206.999V84.8295H204.685V87.1818H203.291V88.9716H204.685V94.4304C204.672 96.2777 206.014 97.1854 207.753 97.1342C208.411 97.1151 208.865 96.9872 209.114 96.9041L208.724 95.0952C208.597 95.1271 208.335 95.1847 208.047 95.1847C207.465 95.1847 206.999 94.9801 206.999 94.0469V88.9716H208.935V87.1818ZM219.874 97C223.862 97 226.227 94.5327 226.227 90.4418C226.227 86.3636 223.862 83.9091 219.963 83.9091H215.438V97H219.874ZM217.809 94.9482V85.9609H219.829C222.488 85.9609 223.875 87.4439 223.875 90.4418C223.875 93.4524 222.488 94.9482 219.759 94.9482H217.809ZM228.378 97H230.692V87.1818H228.378V97ZM229.542 85.7884C230.277 85.7884 230.878 85.2259 230.878 84.5355C230.878 83.8388 230.277 83.2763 229.542 83.2763C228.8 83.2763 228.199 83.8388 228.199 84.5355C228.199 85.2259 228.8 85.7884 229.542 85.7884ZM235.897 97.1982C237.438 97.1982 238.358 96.4759 238.78 95.6513H238.857V97H241.081V90.429C241.081 87.8338 238.965 87.054 237.092 87.054C235.028 87.054 233.442 87.9744 232.931 89.7642L235.092 90.071C235.322 89.3999 235.974 88.8246 237.105 88.8246C238.179 88.8246 238.767 89.3743 238.767 90.3395V90.3778C238.767 91.0426 238.07 91.0746 236.338 91.2599C234.433 91.4645 232.612 92.0334 232.612 94.245C232.612 96.1754 234.024 97.1982 235.897 97.1982ZM236.498 95.4979C235.533 95.4979 234.842 95.0568 234.842 94.2067C234.842 93.3182 235.616 92.9474 236.651 92.8004C237.259 92.7173 238.473 92.5639 238.773 92.321V93.478C238.773 94.571 237.891 95.4979 236.498 95.4979ZM247.678 100.848C250.33 100.848 252.286 99.6335 252.286 97.1598V87.1818H250.004V88.8054H249.876C249.525 88.0959 248.79 87.054 247.058 87.054C244.788 87.054 243.005 88.831 243.005 92.0589C243.005 95.2614 244.788 96.8594 247.051 96.8594C248.732 96.8594 249.518 95.9581 249.876 95.2358H249.991V97.0959C249.991 98.5021 249.033 99.0966 247.716 99.0966C246.322 99.0966 245.709 98.4382 245.428 97.9013L243.344 98.4062C243.766 99.7422 245.178 100.848 247.678 100.848ZM247.697 95.044C246.169 95.044 245.364 93.8551 245.364 92.0462C245.364 90.2628 246.156 88.9524 247.697 88.9524C249.186 88.9524 250.004 90.1861 250.004 92.0462C250.004 93.919 249.173 95.044 247.697 95.044ZM256.972 91.2472C256.972 89.8281 257.828 89.0099 259.049 89.0099C260.244 89.0099 260.96 89.7962 260.96 91.1065V97H263.274V90.7486C263.281 88.3963 261.938 87.054 259.912 87.054C258.442 87.054 257.432 87.7571 256.984 88.8501H256.869V87.1818H254.658V97H256.972V91.2472ZM269.909 97.1918C272.786 97.1918 274.614 95.1655 274.614 92.1293C274.614 89.0866 272.786 87.054 269.909 87.054C267.033 87.054 265.205 89.0866 265.205 92.1293C265.205 95.1655 267.033 97.1918 269.909 97.1918ZM269.922 95.3381C268.33 95.3381 267.55 93.919 267.55 92.1229C267.55 90.3267 268.33 88.8885 269.922 88.8885C271.488 88.8885 272.268 90.3267 272.268 92.1229C272.268 93.919 271.488 95.3381 269.922 95.3381ZM284.338 89.777C284.018 88.1151 282.688 87.054 280.387 87.054C278.022 87.054 276.411 88.2173 276.418 90.0327C276.411 91.4645 277.294 92.4105 279.179 92.8004L280.854 93.152C281.755 93.3501 282.177 93.7145 282.177 94.2706C282.177 94.9418 281.448 95.4467 280.349 95.4467C279.288 95.4467 278.597 94.9865 278.399 94.1044L276.143 94.3217C276.431 96.1243 277.945 97.1918 280.355 97.1918C282.81 97.1918 284.542 95.9197 284.548 94.0597C284.542 92.6598 283.641 91.8033 281.787 91.4006L280.112 91.0426C279.115 90.8189 278.719 90.4737 278.725 89.9048C278.719 89.2401 279.454 88.7798 280.419 88.7798C281.487 88.7798 282.049 89.3615 282.228 90.0071L284.338 89.777ZM291.359 87.1818H289.422V84.8295H287.108V87.1818H285.715V88.9716H287.108V94.4304C287.096 96.2777 288.438 97.1854 290.177 97.1342C290.835 97.1151 291.289 96.9872 291.538 96.9041L291.148 95.0952C291.02 95.1271 290.758 95.1847 290.471 95.1847C289.889 95.1847 289.422 94.9801 289.422 94.0469V88.9716H291.359V87.1818ZM293.294 97H295.608V87.1818H293.294V97ZM294.458 85.7884C295.193 85.7884 295.794 85.2259 295.794 84.5355C295.794 83.8388 295.193 83.2763 294.458 83.2763C293.716 83.2763 293.115 83.8388 293.115 84.5355C293.115 85.2259 293.716 85.7884 294.458 85.7884ZM302.27 97.1918C304.738 97.1918 306.31 95.728 306.476 93.6442H304.265C304.067 94.6989 303.306 95.3061 302.29 95.3061C300.845 95.3061 299.912 94.098 299.912 92.0909C299.912 90.1094 300.864 88.9205 302.29 88.9205C303.402 88.9205 304.086 89.6364 304.265 90.5824H306.476C306.317 88.4538 304.655 87.054 302.258 87.054C299.381 87.054 297.566 89.1314 297.566 92.1293C297.566 95.1016 299.336 97.1918 302.27 97.1918ZM316.136 89.777C315.817 88.1151 314.487 87.054 312.186 87.054C309.821 87.054 308.21 88.2173 308.217 90.0327C308.21 91.4645 309.092 92.4105 310.978 92.8004L312.653 93.152C313.554 93.3501 313.976 93.7145 313.976 94.2706C313.976 94.9418 313.247 95.4467 312.148 95.4467C311.087 95.4467 310.396 94.9865 310.198 94.1044L307.942 94.3217C308.229 96.1243 309.744 97.1918 312.154 97.1918C314.609 97.1918 316.341 95.9197 316.347 94.0597C316.341 92.6598 315.44 91.8033 313.586 91.4006L311.911 91.0426C310.914 90.8189 310.518 90.4737 310.524 89.9048C310.518 89.2401 311.253 88.7798 312.218 88.7798C313.286 88.7798 313.848 89.3615 314.027 90.0071L316.136 89.777Z" fill="#262B35"/>
<rect opacity="0.6" x="71.75" y="62.5" width="55" height="55" rx="24" fill="#C5D7F2"/>
<path fill-rule="evenodd" clip-rule="evenodd" d="M112.85 88.6101C114.59 88.8585 115.958 90.2103 116.209 91.9311C116.522 94.0745 115.018 96.063 112.85 96.3724C110.681 96.6817 108.67 95.1949 108.357 93.0514C108.044 90.908 109.548 88.9195 111.716 88.6101V87.5934C111.716 85.3997 110.064 83.6161 108.033 83.6161C106.06 83.6161 104.406 85.3459 104.35 87.4718V98.4845C104.35 102.626 101.172 106 97.2664 106C93.3605 106 90.1832 102.63 90.1832 98.4845V97.5283C89.3616 97.5283 88.4832 96.9395 88.4832 95.2876V93.8787C84.8481 92.9617 82.25 89.8734 82.25 86.3694V85.2042H83.3833V77.9218C83.3871 76.5598 84.3814 75.3979 85.7395 75.1685C85.897 74.6878 86.2641 74.3021 86.7398 74.1174C87.6177 73.7764 88.609 74.2036 88.9539 75.0715C89.2988 75.9394 88.8667 76.9194 87.9888 77.2603C87.1108 77.6013 86.1195 77.1742 85.7746 76.3062C85.035 76.503 84.5199 77.1646 84.5166 77.9218V85.2042H86.2166V86.3884C86.2602 88.3354 87.5786 90.0285 89.4715 90.568C90.4854 90.886 91.5741 90.886 92.5881 90.568C94.4831 90.0303 95.8046 88.337 95.8498 86.3884V85.2042H96.9831L96.9576 77.9167C96.9517 77.1706 96.4488 76.5177 95.7229 76.3135C95.5364 76.7721 95.1541 77.1257 94.6787 77.2791C93.7909 77.5657 92.8363 77.0864 92.5465 76.2088C92.2567 75.3311 92.7415 74.3874 93.6292 74.101C94.517 73.8144 95.4716 74.2937 95.7614 75.1713C97.1048 75.4115 98.0844 76.5638 98.0926 77.9134L98.1164 85.2042H99.2497V86.3722C99.2497 89.8722 96.6533 92.9594 93.0165 93.8787V95.2876C93.0165 96.9395 92.1382 97.5283 91.3165 97.5283V98.4845C91.3165 102.01 93.9855 104.88 97.2664 104.88C100.547 104.88 103.216 102.014 103.216 98.4845V87.445L103.249 87.4394H103.216C103.294 84.7124 105.454 82.494 108.033 82.494C110.689 82.494 112.85 84.7818 112.85 87.5917V88.6101ZM93.5832 75.681C93.5832 75.9904 93.8369 76.2412 94.1498 76.2412C94.4628 76.2412 94.7165 75.9904 94.7165 75.681C94.7165 75.3717 94.4628 75.1209 94.1498 75.1209C93.8369 75.1209 93.5832 75.3717 93.5832 75.681ZM87.9166 75.681C87.9166 75.3717 87.6629 75.1209 87.3499 75.1209C87.037 75.1209 86.7833 75.3717 86.7833 75.681C86.7833 75.9904 87.037 76.2412 87.3499 76.2412C87.6629 76.2412 87.9166 75.9904 87.9166 75.681ZM83.3833 86.3246V86.3694C83.3833 89.4857 85.8131 92.2278 89.1632 92.89C89.4218 92.9428 89.683 92.9818 89.9458 93.007C90.7441 93.0859 91.5498 93.0468 92.3365 92.8911C95.6866 92.2278 98.1164 89.4857 98.1164 86.3694V86.3246H96.9831V86.3884C96.9398 88.8241 95.2998 90.949 92.9349 91.6335C91.6963 92.0212 90.3667 92.0212 89.1281 91.6335C86.7643 90.9481 85.1258 88.8232 85.0833 86.3884V86.3246H83.3833ZM89.6166 95.2876C89.6166 95.6237 89.6732 96.4079 90.1832 96.4079H91.316C91.8259 96.4079 91.8826 95.6237 91.8826 95.2876V94.0988C91.8586 94.1019 91.834 94.1037 91.8095 94.1056C91.7884 94.1072 91.7673 94.1088 91.7466 94.1112C91.7068 94.1154 91.6662 94.1188 91.6264 94.1221C91.6078 94.1237 91.5895 94.1253 91.5715 94.1269C91.3052 94.1504 91.0355 94.1666 90.7635 94.1666H90.7351C90.4626 94.1661 90.1923 94.1504 89.9242 94.1269C89.91 94.1256 89.8958 94.1244 89.8816 94.1231C89.8392 94.1195 89.7967 94.1158 89.7542 94.1112C89.736 94.1094 89.7176 94.108 89.6992 94.1065C89.6715 94.1044 89.6438 94.1022 89.6166 94.0988V95.2876ZM109.45 92.4866C109.45 94.0335 110.718 95.2876 112.283 95.2876C113.847 95.2857 115.114 94.0328 115.116 92.4866C115.116 90.9397 113.848 89.6857 112.283 89.6857C110.718 89.6857 109.45 90.9397 109.45 92.4866ZM110.583 92.4867C110.583 91.5585 111.344 90.8061 112.283 90.8061C113.222 90.8061 113.983 91.5585 113.983 92.4867C113.983 93.4148 113.222 94.1672 112.283 94.1672C111.344 94.1672 110.583 93.4148 110.583 92.4867ZM111.716 92.4867C111.716 92.796 111.97 93.0468 112.283 93.0468C112.596 93.0468 112.85 92.796 112.85 92.4867C112.85 92.1773 112.596 91.9265 112.283 91.9265C111.97 91.9265 111.716 92.1773 111.716 92.4867Z" fill="#2682D6"/>
<defs>
<filter id="filter0_d" x="0" y="0" width="456" height="192" filterUnits="userSpaceOnUse" color-interpolation-filters="sRGB">
<feFlood flood-opacity="0" result="BackgroundImageFix"/>
<feColorMatrix in="SourceAlpha" type="matrix" values="0 0 0 0 0 0 0 0 0 0 0 0 0 0 0 0 0 0 127 0" result="hardAlpha"/>
<feOffset dy="6"/>
<feGaussianBlur stdDeviation="24"/>
<feColorMatrix type="matrix" values="0 0 0 0 0 0 0 0 0 0 0 0 0 0 0 0 0 0 0.1 0"/>
<feBlend mode="normal" in2="BackgroundImageFix" result="effect1_dropShadow"/>
<feBlend mode="normal" in="SourceGraphic" in2="effect1_dropShadow" result="shape"/>
</filter>
</defs>
</svg>
