<svg width="456" height="192" viewBox="0 0 456 192" fill="none" xmlns="http://www.w3.org/2000/svg">
<g filter="url(#filter0_d)">
<rect x="48" y="42" width="360" height="96" rx="16" fill="white"/>
</g>
<path d="M158.291 69.9091V83H160.567V73.9872H160.688L164.306 82.9616H166.006L169.624 74.0064H169.746V83H172.021V69.9091H169.119L165.233 79.3949H165.08L161.193 69.9091H158.291ZM178.784 83.1918C181.661 83.1918 183.489 81.1655 183.489 78.1293C183.489 75.0866 181.661 73.054 178.784 73.054C175.908 73.054 174.08 75.0866 174.08 78.1293C174.08 81.1655 175.908 83.1918 178.784 83.1918ZM178.797 81.3381C177.205 81.3381 176.425 79.919 176.425 78.1229C176.425 76.3267 177.205 74.8885 178.797 74.8885C180.363 74.8885 181.143 76.3267 181.143 78.1229C181.143 79.919 180.363 81.3381 178.797 81.3381ZM185.555 83H187.83V81.4531H187.965C188.329 82.169 189.09 83.1726 190.777 83.1726C193.091 83.1726 194.823 81.3381 194.823 78.1037C194.823 74.831 193.04 73.054 190.771 73.054C189.039 73.054 188.316 74.0959 187.965 74.8054H187.869V69.9091H185.555V83ZM187.824 78.0909C187.824 76.1861 188.642 74.9524 190.132 74.9524C191.672 74.9524 192.465 76.2628 192.465 78.0909C192.465 79.9318 191.659 81.2741 190.132 81.2741C188.655 81.2741 187.824 79.9957 187.824 78.0909ZM196.79 83H199.104V73.1818H196.79V83ZM197.954 71.7884C198.689 71.7884 199.29 71.2259 199.29 70.5355C199.29 69.8388 198.689 69.2763 197.954 69.2763C197.212 69.2763 196.612 69.8388 196.612 70.5355C196.612 71.2259 197.212 71.7884 197.954 71.7884ZM203.798 69.9091H201.484V83H203.798V69.9091ZM210.524 83.1918C212.812 83.1918 214.385 82.0732 214.794 80.3665L212.633 80.1236C212.32 80.9545 211.553 81.3892 210.556 81.3892C209.06 81.3892 208.069 80.4048 208.05 78.7237H214.89V78.0142C214.89 74.5689 212.819 73.054 210.402 73.054C207.59 73.054 205.755 75.1186 205.755 78.1484C205.755 81.2294 207.564 83.1918 210.524 83.1918ZM208.056 77.1641C208.127 75.9112 209.054 74.8565 210.434 74.8565C211.764 74.8565 212.659 75.8281 212.672 77.1641H208.056ZM232.619 74.326C232.217 71.4176 229.98 69.7301 227.078 69.7301C223.658 69.7301 221.082 72.223 221.082 76.4545C221.082 80.6797 223.626 83.179 227.078 83.179C230.191 83.179 232.255 81.1655 232.619 78.6662L230.229 78.6534C229.928 80.1875 228.676 81.0504 227.11 81.0504C224.987 81.0504 223.466 79.4588 223.466 76.4545C223.466 73.5014 224.975 71.8587 227.116 71.8587C228.708 71.8587 229.954 72.7599 230.229 74.326H232.619ZM238.972 83.1918C241.848 83.1918 243.676 81.1655 243.676 78.1293C243.676 75.0866 241.848 73.054 238.972 73.054C236.095 73.054 234.267 75.0866 234.267 78.1293C234.267 81.1655 236.095 83.1918 238.972 83.1918ZM238.984 81.3381C237.393 81.3381 236.613 79.919 236.613 78.1229C236.613 76.3267 237.393 74.8885 238.984 74.8885C240.55 74.8885 241.33 76.3267 241.33 78.1229C241.33 79.919 240.55 81.3381 238.984 81.3381ZM245.64 83H247.954V77.0298C247.954 75.8217 248.759 75.0036 249.757 75.0036C250.735 75.0036 251.406 75.6619 251.406 76.6719V83H253.675V76.8764C253.675 75.7706 254.333 75.0036 255.452 75.0036C256.385 75.0036 257.127 75.5533 257.127 76.7678V83H259.447V76.4098C259.447 74.2173 258.181 73.054 256.379 73.054C254.953 73.054 253.867 73.7571 253.432 74.8501H253.33C252.953 73.7379 252 73.054 250.677 73.054C249.36 73.054 248.376 73.7315 247.967 74.8501H247.852V73.1818H245.64V83ZM261.794 83H264.108V77.0298C264.108 75.8217 264.914 75.0036 265.911 75.0036C266.889 75.0036 267.56 75.6619 267.56 76.6719V83H269.829V76.8764C269.829 75.7706 270.488 75.0036 271.606 75.0036C272.539 75.0036 273.281 75.5533 273.281 76.7678V83H275.601V76.4098C275.601 74.2173 274.336 73.054 272.533 73.054C271.108 73.054 270.021 73.7571 269.586 74.8501H269.484C269.107 73.7379 268.154 73.054 266.831 73.054C265.515 73.054 264.53 73.7315 264.121 74.8501H264.006V73.1818H261.794V83ZM280.774 83.1982C282.314 83.1982 283.235 82.4759 283.657 81.6513H283.733V83H285.958V76.429C285.958 73.8338 283.842 73.054 281.969 73.054C279.905 73.054 278.319 73.9744 277.808 75.7642L279.969 76.071C280.199 75.3999 280.851 74.8246 281.982 74.8246C283.056 74.8246 283.644 75.3743 283.644 76.3395V76.3778C283.644 77.0426 282.947 77.0746 281.215 77.2599C279.31 77.4645 277.488 78.0334 277.488 80.245C277.488 82.1754 278.901 83.1982 280.774 83.1982ZM281.375 81.4979C280.41 81.4979 279.719 81.0568 279.719 80.2067C279.719 79.3182 280.493 78.9474 281.528 78.8004C282.135 78.7173 283.35 78.5639 283.65 78.321V79.478C283.65 80.571 282.768 81.4979 281.375 81.4979ZM290.599 77.2472C290.599 75.8281 291.455 75.0099 292.676 75.0099C293.871 75.0099 294.587 75.7962 294.587 77.1065V83H296.901V76.7486C296.907 74.3963 295.565 73.054 293.539 73.054C292.069 73.054 291.059 73.7571 290.611 74.8501H290.496V73.1818H288.285V83H290.599V77.2472ZM302.897 83.1726C304.584 83.1726 305.345 82.169 305.709 81.4531H305.85V83H308.126V69.9091H305.805V74.8054H305.709C305.358 74.0959 304.635 73.054 302.903 73.054C300.634 73.054 298.851 74.831 298.851 78.1037C298.851 81.3381 300.583 83.1726 302.897 83.1726ZM303.542 81.2741C302.015 81.2741 301.209 79.9318 301.209 78.0909C301.209 76.2628 302.002 74.9524 303.542 74.9524C305.032 74.9524 305.85 76.1861 305.85 78.0909C305.85 79.9957 305.019 81.2741 303.542 81.2741ZM158.291 93.9091V107H160.567V97.9872H160.688L164.306 106.962H166.006L169.624 98.0064H169.746V107H172.021V93.9091H169.119L165.233 103.395H165.08L161.193 93.9091H158.291ZM177.327 107.198C178.867 107.198 179.788 106.476 180.21 105.651H180.286V107H182.511V100.429C182.511 97.8338 180.395 97.054 178.522 97.054C176.457 97.054 174.872 97.9744 174.361 99.7642L176.521 100.071C176.751 99.3999 177.403 98.8246 178.535 98.8246C179.609 98.8246 180.197 99.3743 180.197 100.339V100.378C180.197 101.043 179.5 101.075 177.768 101.26C175.863 101.464 174.041 102.033 174.041 104.245C174.041 106.175 175.454 107.198 177.327 107.198ZM177.928 105.498C176.962 105.498 176.272 105.057 176.272 104.207C176.272 103.318 177.045 102.947 178.081 102.8C178.688 102.717 179.903 102.564 180.203 102.321V103.478C180.203 104.571 179.321 105.498 177.928 105.498ZM187.151 101.247C187.151 99.8281 188.008 99.0099 189.229 99.0099C190.424 99.0099 191.14 99.7962 191.14 101.107V107H193.454V100.749C193.46 98.3963 192.118 97.054 190.092 97.054C188.621 97.054 187.612 97.7571 187.164 98.8501H187.049V97.1818H184.837V107H187.151V101.247ZM198.631 107.198C200.172 107.198 201.092 106.476 201.514 105.651H201.591V107H203.815V100.429C203.815 97.8338 201.7 97.054 199.827 97.054C197.762 97.054 196.177 97.9744 195.665 99.7642L197.826 100.071C198.056 99.3999 198.708 98.8246 199.839 98.8246C200.913 98.8246 201.501 99.3743 201.501 100.339V100.378C201.501 101.043 200.805 101.075 199.072 101.26C197.168 101.464 195.346 102.033 195.346 104.245C195.346 106.175 196.759 107.198 198.631 107.198ZM199.232 105.498C198.267 105.498 197.577 105.057 197.577 104.207C197.577 103.318 198.35 102.947 199.386 102.8C199.993 102.717 201.207 102.564 201.508 102.321V103.478C201.508 104.571 200.626 105.498 199.232 105.498ZM210.412 110.848C213.065 110.848 215.021 109.634 215.021 107.16V97.1818H212.739V98.8054H212.611C212.259 98.0959 211.524 97.054 209.792 97.054C207.523 97.054 205.739 98.831 205.739 102.059C205.739 105.261 207.523 106.859 209.786 106.859C211.467 106.859 212.253 105.958 212.611 105.236H212.726V107.096C212.726 108.502 211.767 109.097 210.45 109.097C209.057 109.097 208.443 108.438 208.162 107.901L206.078 108.406C206.5 109.742 207.913 110.848 210.412 110.848ZM210.431 105.044C208.903 105.044 208.098 103.855 208.098 102.046C208.098 100.263 208.891 98.9524 210.431 98.9524C211.92 98.9524 212.739 100.186 212.739 102.046C212.739 103.919 211.908 105.044 210.431 105.044ZM221.739 107.192C224.027 107.192 225.599 106.073 226.009 104.366L223.848 104.124C223.535 104.955 222.768 105.389 221.771 105.389C220.275 105.389 219.284 104.405 219.265 102.724H226.104V102.014C226.104 98.5689 224.033 97.054 221.617 97.054C218.805 97.054 216.97 99.1186 216.97 102.148C216.97 105.229 218.779 107.192 221.739 107.192ZM219.271 101.164C219.342 99.9112 220.268 98.8565 221.649 98.8565C222.979 98.8565 223.874 99.8281 223.886 101.164H219.271ZM228.062 107H230.376V101.03C230.376 99.8217 231.181 99.0036 232.178 99.0036C233.156 99.0036 233.828 99.6619 233.828 100.672V107H236.097V100.876C236.097 99.7706 236.755 99.0036 237.874 99.0036C238.807 99.0036 239.548 99.5533 239.548 100.768V107H241.869V100.41C241.869 98.2173 240.603 97.054 238.801 97.054C237.375 97.054 236.289 97.7571 235.854 98.8501H235.752C235.374 97.7379 234.422 97.054 233.099 97.054C231.782 97.054 230.798 97.7315 230.389 98.8501H230.274V97.1818H228.062V107ZM248.563 107.192C250.851 107.192 252.424 106.073 252.833 104.366L250.672 104.124C250.359 104.955 249.592 105.389 248.595 105.389C247.099 105.389 246.108 104.405 246.089 102.724H252.929V102.014C252.929 98.5689 250.858 97.054 248.441 97.054C245.629 97.054 243.794 99.1186 243.794 102.148C243.794 105.229 245.603 107.192 248.563 107.192ZM246.096 101.164C246.166 99.9112 247.093 98.8565 248.473 98.8565C249.803 98.8565 250.698 99.8281 250.711 101.164H246.096ZM257.2 101.247C257.2 99.8281 258.057 99.0099 259.278 99.0099C260.473 99.0099 261.189 99.7962 261.189 101.107V107H263.503V100.749C263.509 98.3963 262.167 97.054 260.14 97.054C258.67 97.054 257.66 97.7571 257.213 98.8501H257.098V97.1818H254.886V107H257.2V101.247ZM270.758 97.1818H268.821V94.8295H266.507V97.1818H265.113V98.9716H266.507V104.43C266.494 106.278 267.836 107.185 269.575 107.134C270.233 107.115 270.687 106.987 270.937 106.904L270.547 105.095C270.419 105.127 270.157 105.185 269.869 105.185C269.287 105.185 268.821 104.98 268.821 104.047V98.9716H270.758V97.1818Z" fill="#262B35"/>
<rect opacity="0.6" x="72" y="62.5" width="55" height="55" rx="24" fill="#F1C1C9"/>
<path fill-rule="evenodd" clip-rule="evenodd" d="M98.75 72.3216C98.75 71.8973 99.086 71.553 99.5 71.553C99.914 71.553 100.25 71.8973 100.25 72.3216V75.3957C100.25 75.82 99.914 76.1643 99.5 76.1643C99.086 76.1643 98.75 75.82 98.75 75.3958V72.3216ZM108.5 83.8508H111.5C111.914 83.8508 112.25 84.1951 112.25 84.6193C112.25 85.0436 111.914 85.3879 111.5 85.3879H108.5C108.086 85.3879 107.75 85.0437 107.75 84.6194C107.75 84.1952 108.086 83.8508 108.5 83.8508ZM90.5 83.8508H87.5C87.086 83.8508 86.75 84.1952 86.75 84.6194C86.75 85.0437 87.086 85.3879 87.5 85.3879H90.5C90.914 85.3879 91.2501 85.0436 91.2501 84.6193C91.2501 84.1951 90.914 83.8508 90.5 83.8508ZM107.455 75.3804C107.747 75.0806 108.223 75.0806 108.515 75.3804C108.808 75.6802 108.808 76.1676 108.515 76.4674L106.394 78.6415C106.249 78.7907 106.057 78.866 105.865 78.866C105.673 78.866 105.481 78.7906 105.334 78.6415C105.041 78.3416 105.041 77.8542 105.334 77.5544L107.455 75.3804ZM93.6666 77.5544L91.5455 75.3804C91.253 75.0806 90.7775 75.0806 90.485 75.3804C90.1925 75.6802 90.1925 76.1676 90.485 76.4674L92.6045 78.6415C92.7515 78.7906 92.9435 78.866 93.1355 78.866C93.3275 78.866 93.5195 78.7907 93.6665 78.6415C93.9591 78.3416 93.9591 77.8542 93.6666 77.5544ZM102.999 93.0896C104.501 92.0658 106.523 92.4209 107.603 93.8981C108.252 94.7851 108.192 96.021 107.462 96.8403L101.391 103.629C101.322 103.707 101.25 103.782 101.176 103.855C101.505 103.937 101.75 104.241 101.75 104.603V107.678C101.75 108.103 101.414 108.447 101 108.447C100.586 108.447 100.25 108.103 100.25 107.678V105.372H91.25V107.678C91.25 108.103 90.914 108.447 90.5 108.447C90.086 108.447 89.75 108.103 89.75 107.678V104.603C89.75 104.179 90.086 103.834 90.5 103.834H90.7617C89.2307 102.565 88.25 100.625 88.25 98.4544V92.3056C88.25 91.0343 89.2595 89.9998 90.5 89.9998C90.7925 89.9998 91.0715 90.0582 91.3295 90.1611C91.589 89.1835 92.465 88.4625 93.5 88.4625C93.7925 88.4625 94.0715 88.521 94.3295 88.6239C94.5889 87.6463 95.465 86.9253 96.5 86.9253C96.7625 86.9253 97.016 86.9715 97.25 87.056V84.6195C97.25 83.3482 98.2595 82.3137 99.5 82.3137C100.741 82.3137 101.75 83.3482 101.75 84.6195V93.9427L102.999 93.0896ZM100.284 102.588C99.5888 103.367 98.6035 103.819 97.5747 103.834H94.9345C92.0696 103.798 89.75 101.399 89.75 98.4544V92.3056C89.75 91.8813 90.086 91.537 90.5 91.537C90.914 91.537 91.25 91.8813 91.25 92.3056V93.0742C91.25 93.4985 91.586 93.8428 92 93.8428C92.414 93.8428 92.75 93.4985 92.75 93.0742V90.7684C92.75 90.3441 93.086 89.9998 93.5 89.9998C93.914 89.9998 94.25 90.3441 94.25 90.7684V93.0742C94.25 93.4985 94.5861 93.8428 95.0001 93.8428C95.4141 93.8428 95.7501 93.4985 95.7501 93.0742V89.2312C95.7501 88.807 96.0861 88.4626 96.5001 88.4626C96.9141 88.4626 97.25 88.8069 97.25 89.2312V93.0741C97.25 93.4984 97.586 93.8428 98 93.8428C98.414 93.8428 98.75 93.4984 98.75 93.0741V84.6195C98.75 84.1953 99.0861 83.8509 99.5001 83.8509C99.9141 83.8509 100.25 84.1953 100.25 84.6195V95.38C100.25 95.6644 100.405 95.9226 100.648 96.0564C100.891 96.1901 101.188 96.1747 101.417 96.0179L103.832 94.367C104.671 93.7967 105.799 93.9934 106.403 94.8189C106.619 95.1141 106.599 95.5276 106.355 95.7997L100.284 102.588ZM94.25 84.6193C94.25 81.6524 96.605 79.239 99.5 79.239C102.395 79.239 104.75 81.6524 104.75 84.6192C104.75 85.0435 104.414 85.3879 104 85.3879C103.586 85.3879 103.25 85.0435 103.25 84.6192C103.25 82.501 101.567 80.7762 99.5 80.7762C97.433 80.7762 95.75 82.501 95.75 84.6193C95.75 85.0436 95.414 85.3879 95 85.3879C94.586 85.3879 94.25 85.0436 94.25 84.6193Z" fill="#D62642"/>
<defs>
<filter id="filter0_d" x="0" y="0" width="456" height="192" filterUnits="userSpaceOnUse" color-interpolation-filters="sRGB">
<feFlood flood-opacity="0" result="BackgroundImageFix"/>
<feColorMatrix in="SourceAlpha" type="matrix" values="0 0 0 0 0 0 0 0 0 0 0 0 0 0 0 0 0 0 127 0" result="hardAlpha"/>
<feOffset dy="6"/>
<feGaussianBlur stdDeviation="24"/>
<feColorMatrix type="matrix" values="0 0 0 0 0 0 0 0 0 0 0 0 0 0 0 0 0 0 0.1 0"/>
<feBlend mode="normal" in2="BackgroundImageFix" result="effect1_dropShadow"/>
<feBlend mode="normal" in="SourceGraphic" in2="effect1_dropShadow" result="shape"/>
</filter>
</defs>
</svg>
