<svg width="456" height="192" viewBox="0 0 456 192" fill="none" xmlns="http://www.w3.org/2000/svg">
<g filter="url(#filter0_d)">
<rect x="48" y="42" width="360" height="96" rx="16" fill="white"/>
</g>
<path d="M160.043 83.9091H157.441L162.05 97H164.977L169.592 83.9091H166.984L163.584 94.2131H163.45L160.043 83.9091ZM171.214 97H173.528V87.1818H171.214V97ZM172.378 85.7884C173.113 85.7884 173.714 85.2259 173.714 84.5355C173.714 83.8388 173.113 83.2763 172.378 83.2763C171.636 83.2763 171.035 83.8388 171.035 84.5355C171.035 85.2259 171.636 85.7884 172.378 85.7884ZM180.81 87.1818H178.874V84.8295H176.56V87.1818H175.166V88.9716H176.56V94.4304C176.547 96.2777 177.889 97.1854 179.628 97.1342C180.286 97.1151 180.74 96.9872 180.989 96.9041L180.599 95.0952C180.472 95.1271 180.21 95.1847 179.922 95.1847C179.34 95.1847 178.874 94.9801 178.874 94.0469V88.9716H180.81V87.1818ZM185.571 97.1982C187.111 97.1982 188.032 96.4759 188.454 95.6513H188.53V97H190.755V90.429C190.755 87.8338 188.639 87.054 186.766 87.054C184.702 87.054 183.116 87.9744 182.605 89.7642L184.765 90.071C184.996 89.3999 185.648 88.8246 186.779 88.8246C187.853 88.8246 188.441 89.3743 188.441 90.3395V90.3778C188.441 91.0426 187.744 91.0746 186.012 91.2599C184.107 91.4645 182.285 92.0334 182.285 94.245C182.285 96.1754 183.698 97.1982 185.571 97.1982ZM186.172 95.4979C185.206 95.4979 184.516 95.0568 184.516 94.2067C184.516 93.3182 185.29 92.9474 186.325 92.8004C186.932 92.7173 188.147 92.5639 188.447 92.321V93.478C188.447 94.571 187.565 95.4979 186.172 95.4979ZM195.395 83.9091H193.081V97H195.395V83.9091ZM202.342 97H210.907V95.0121H204.713V91.4389H210.415V89.451H204.713V85.897H210.856V83.9091H202.342V97ZM222.039 100.682V87.1818H219.763V88.8054H219.629C219.278 88.0959 218.555 87.054 216.823 87.054C214.554 87.054 212.771 88.831 212.771 92.1037C212.771 95.3381 214.503 97.1726 216.817 97.1726C218.504 97.1726 219.265 96.169 219.629 95.4531H219.725V100.682H222.039ZM219.77 92.0909C219.77 93.9957 218.939 95.2741 217.462 95.2741C215.935 95.2741 215.129 93.9318 215.129 92.0909C215.129 90.2628 215.922 88.9524 217.462 88.9524C218.952 88.9524 219.77 90.1861 219.77 92.0909ZM230.681 92.8707C230.681 94.3665 229.614 95.108 228.591 95.108C227.479 95.108 226.737 94.3217 226.737 93.0753V87.1818H224.423V93.4332C224.423 95.7919 225.766 97.1278 227.696 97.1278C229.166 97.1278 230.202 96.3544 230.649 95.255H230.751V97H232.995V87.1818H230.681V92.8707ZM235.374 97H237.688V87.1818H235.374V97ZM236.538 85.7884C237.273 85.7884 237.874 85.2259 237.874 84.5355C237.874 83.8388 237.273 83.2763 236.538 83.2763C235.796 83.2763 235.195 83.8388 235.195 84.5355C235.195 85.2259 235.796 85.7884 236.538 85.7884ZM240.068 100.682H242.382V95.4531H242.478C242.842 96.169 243.603 97.1726 245.29 97.1726C247.604 97.1726 249.336 95.3381 249.336 92.1037C249.336 88.831 247.553 87.054 245.284 87.054C243.551 87.054 242.829 88.0959 242.478 88.8054H242.343V87.1818H240.068V100.682ZM242.337 92.0909C242.337 90.1861 243.155 88.9524 244.645 88.9524C246.185 88.9524 246.978 90.2628 246.978 92.0909C246.978 93.9318 246.172 95.2741 244.645 95.2741C243.168 95.2741 242.337 93.9957 242.337 92.0909ZM251.318 97H253.632V91.0298C253.632 89.8217 254.437 89.0036 255.434 89.0036C256.412 89.0036 257.083 89.6619 257.083 90.6719V97H259.353V90.8764C259.353 89.7706 260.011 89.0036 261.13 89.0036C262.063 89.0036 262.804 89.5533 262.804 90.7678V97H265.125V90.4098C265.125 88.2173 263.859 87.054 262.056 87.054C260.631 87.054 259.544 87.7571 259.11 88.8501H259.007C258.63 87.7379 257.678 87.054 256.355 87.054C255.038 87.054 254.054 87.7315 253.645 88.8501H253.529V87.1818H251.318V97ZM271.819 97.1918C274.107 97.1918 275.68 96.0732 276.089 94.3665L273.928 94.1236C273.615 94.9545 272.848 95.3892 271.851 95.3892C270.355 95.3892 269.364 94.4048 269.345 92.7237H276.184V92.0142C276.184 88.5689 274.113 87.054 271.697 87.054C268.885 87.054 267.05 89.1186 267.05 92.1484C267.05 95.2294 268.859 97.1918 271.819 97.1918ZM269.351 91.1641C269.422 89.9112 270.349 88.8565 271.729 88.8565C273.059 88.8565 273.954 89.8281 273.966 91.1641H269.351ZM280.456 91.2472C280.456 89.8281 281.312 89.0099 282.533 89.0099C283.729 89.0099 284.445 89.7962 284.445 91.1065V97H286.759V90.7486C286.765 88.3963 285.423 87.054 283.396 87.054C281.926 87.054 280.916 87.7571 280.469 88.8501H280.354V87.1818H278.142V97H280.456V91.2472ZM294.013 87.1818H292.077V84.8295H289.763V87.1818H288.369V88.9716H289.763V94.4304C289.75 96.2777 291.092 97.1854 292.831 97.1342C293.489 97.1151 293.943 96.9872 294.192 96.9041L293.803 95.0952C293.675 95.1271 293.413 95.1847 293.125 95.1847C292.543 95.1847 292.077 94.9801 292.077 94.0469V88.9716H294.013V87.1818ZM307.63 87.5078H309.912C309.867 85.2962 307.982 83.7301 305.195 83.7301C302.446 83.7301 300.382 85.277 300.388 87.5909C300.388 89.4702 301.724 90.5504 303.878 91.1065L305.367 91.4901C306.78 91.848 307.713 92.2891 307.72 93.3054C307.713 94.424 306.652 95.1719 305.105 95.1719C303.622 95.1719 302.472 94.5071 302.376 93.1328H300.043C300.139 95.7344 302.075 97.1982 305.124 97.1982C308.263 97.1982 310.085 95.6321 310.091 93.3246C310.085 91.0554 308.212 90.0199 306.243 89.5533L305.016 89.2464C303.942 88.9908 302.779 88.5369 302.791 87.4439C302.798 86.4595 303.68 85.7372 305.163 85.7372C306.575 85.7372 307.509 86.3956 307.63 87.5078ZM316.386 97.1918C318.853 97.1918 320.425 95.728 320.592 93.6442H318.38C318.182 94.6989 317.421 95.3061 316.405 95.3061C314.96 95.3061 314.027 94.098 314.027 92.0909C314.027 90.1094 314.979 88.9205 316.405 88.9205C317.517 88.9205 318.201 89.6364 318.38 90.5824H320.592C320.432 88.4538 318.77 87.054 316.373 87.054C313.496 87.054 311.681 89.1314 311.681 92.1293C311.681 95.1016 313.452 97.1918 316.386 97.1918ZM325.317 97.1982C326.857 97.1982 327.778 96.4759 328.2 95.6513H328.276V97H330.501V90.429C330.501 87.8338 328.385 87.054 326.512 87.054C324.448 87.054 322.862 87.9744 322.351 89.7642L324.512 90.071C324.742 89.3999 325.394 88.8246 326.525 88.8246C327.599 88.8246 328.187 89.3743 328.187 90.3395V90.3778C328.187 91.0426 327.49 91.0746 325.758 91.2599C323.853 91.4645 322.031 92.0334 322.031 94.245C322.031 96.1754 323.444 97.1982 325.317 97.1982ZM325.918 95.4979C324.953 95.4979 324.262 95.0568 324.262 94.2067C324.262 93.3182 325.036 92.9474 326.071 92.8004C326.678 92.7173 327.893 92.5639 328.193 92.321V93.478C328.193 94.571 327.311 95.4979 325.918 95.4979ZM335.142 91.2472C335.142 89.8281 335.998 89.0099 337.219 89.0099C338.414 89.0099 339.13 89.7962 339.13 91.1065V97H341.444V90.7486C341.45 88.3963 340.108 87.054 338.082 87.054C336.612 87.054 335.602 87.7571 335.154 88.8501H335.039V87.1818H332.828V97H335.142V91.2472Z" fill="#262B35"/>
<rect opacity="0.6" x="72" y="62.5" width="55" height="55" rx="24" fill="#C5F2DC"/>
<path fill-rule="evenodd" clip-rule="evenodd" d="M107.291 93.9081L116.676 103.527C117.207 104.071 117.5 104.794 117.5 105.564C117.5 106.335 117.207 107.058 116.676 107.603C116.145 108.147 115.439 108.447 114.688 108.447C113.936 108.447 113.23 108.147 112.699 107.602L105.909 100.644L105.908 100.643L103.314 97.984C101.011 99.5508 98.3438 100.376 95.5625 100.376C87.8084 100.376 81.5 93.9111 81.5 85.9645C81.5 78.0178 87.8084 71.5527 95.5625 71.5527C103.317 71.5527 109.625 78.0178 109.625 85.9645C109.625 88.8148 108.82 91.5479 107.291 93.9081ZM102.983 96.4655L102.983 96.4654C104.07 95.6572 105.02 94.6827 105.809 93.5692C107.385 91.3449 108.219 88.7153 108.219 85.9645C108.219 78.8125 102.541 72.9939 95.5625 72.9939C88.5838 72.9939 82.9062 78.8125 82.9062 85.9645C82.9062 93.1164 88.5838 98.935 95.5625 98.935C98.2467 98.935 100.813 98.0811 102.983 96.4655ZM106.446 95.081C105.851 95.8268 105.186 96.5085 104.458 97.1186L106.453 99.163C107.169 98.5414 107.835 97.8592 108.441 97.1254L106.446 95.081ZM114.688 107.006C115.063 107.006 115.416 106.856 115.682 106.583C115.947 106.311 116.094 105.949 116.094 105.564C116.094 105.179 115.947 104.818 115.682 104.546L109.438 98.1472C108.827 98.877 108.162 99.5586 107.45 100.185L113.693 106.583C113.959 106.856 114.312 107.006 114.688 107.006ZM102.594 85.9646C102.594 85.5669 102.909 85.2441 103.297 85.2441C103.685 85.2441 104 85.5669 104 85.9646C104 86.3623 103.685 86.6851 103.297 86.6851C102.909 86.6851 102.594 86.3623 102.594 85.9646ZM95.5625 74.4351C89.3592 74.4351 84.3125 79.607 84.3125 85.9644C84.3125 92.3217 89.3592 97.4937 95.5625 97.4937C101.766 97.4937 106.812 92.3217 106.812 85.9644C106.812 79.607 101.766 74.4351 95.5625 74.4351ZM95.5625 96.0525C90.1347 96.0525 85.7188 91.527 85.7188 85.9644C85.7188 80.4018 90.1347 75.8762 95.5625 75.8762C100.99 75.8762 105.406 80.4018 105.406 85.9644C105.406 91.527 100.99 96.0525 95.5625 96.0525ZM100.393 78.8781C101.782 79.8753 102.837 81.256 103.442 82.8709C103.581 83.2424 103.4 83.6592 103.038 83.802C102.955 83.8346 102.87 83.8501 102.786 83.8501C102.503 83.8501 102.237 83.6743 102.129 83.3878C101.091 80.6188 98.4523 78.7585 95.5625 78.7585C95.1742 78.7585 94.8594 78.4358 94.8594 78.0379C94.8594 77.64 95.1742 77.3174 95.5625 77.3174C97.3007 77.3174 98.9712 77.8571 100.393 78.8781Z" fill="#1ECE7A"/>
<defs>
<filter id="filter0_d" x="0" y="0" width="456" height="192" filterUnits="userSpaceOnUse" color-interpolation-filters="sRGB">
<feFlood flood-opacity="0" result="BackgroundImageFix"/>
<feColorMatrix in="SourceAlpha" type="matrix" values="0 0 0 0 0 0 0 0 0 0 0 0 0 0 0 0 0 0 127 0" result="hardAlpha"/>
<feOffset dy="6"/>
<feGaussianBlur stdDeviation="24"/>
<feColorMatrix type="matrix" values="0 0 0 0 0 0 0 0 0 0 0 0 0 0 0 0 0 0 0.1 0"/>
<feBlend mode="normal" in2="BackgroundImageFix" result="effect1_dropShadow"/>
<feBlend mode="normal" in="SourceGraphic" in2="effect1_dropShadow" result="shape"/>
</filter>
</defs>
</svg>
