<svg width="456" height="192" viewBox="0 0 456 192" fill="none" xmlns="http://www.w3.org/2000/svg">
<g filter="url(#filter0_d)">
<rect x="48" y="42" width="360" height="96" rx="16" fill="white"/>
</g>
<path d="M158.291 82H160.663V77.5767H163.168C166.192 77.5767 167.815 75.7614 167.815 73.2429C167.815 70.7436 166.211 68.9091 163.2 68.9091H158.291V82ZM160.663 75.6271V70.8906H162.836C164.613 70.8906 165.399 71.8494 165.399 73.2429C165.399 74.6364 164.613 75.6271 162.849 75.6271H160.663ZM169.773 82H172.087V76.228C172.087 74.9815 173.026 74.0994 174.298 74.0994C174.688 74.0994 175.174 74.1697 175.372 74.2337V72.1051C175.161 72.0668 174.797 72.0412 174.541 72.0412C173.416 72.0412 172.477 72.6804 172.119 73.8182H172.017V72.1818H169.773V82ZM180.852 82.1918C183.14 82.1918 184.713 81.0732 185.122 79.3665L182.961 79.1236C182.648 79.9545 181.881 80.3892 180.884 80.3892C179.388 80.3892 178.397 79.4048 178.378 77.7237H185.218V77.0142C185.218 73.5689 183.147 72.054 180.73 72.054C177.918 72.054 176.083 74.1186 176.083 77.1484C176.083 80.2294 177.892 82.1918 180.852 82.1918ZM178.385 76.1641C178.455 74.9112 179.382 73.8565 180.762 73.8565C182.092 73.8565 182.987 74.8281 183 76.1641H178.385ZM195.84 72.1818H193.379L191.116 79.4751H191.014L188.757 72.1818H186.29L189.786 82H192.343L195.84 72.1818ZM201.453 82.1918C203.742 82.1918 205.314 81.0732 205.723 79.3665L203.563 79.1236C203.25 79.9545 202.483 80.3892 201.485 80.3892C199.99 80.3892 198.999 79.4048 198.98 77.7237H205.819V77.0142C205.819 73.5689 203.748 72.054 201.332 72.054C198.52 72.054 196.685 74.1186 196.685 77.1484C196.685 80.2294 198.494 82.1918 201.453 82.1918ZM198.986 76.1641C199.056 74.9112 199.983 73.8565 201.364 73.8565C202.694 73.8565 203.588 74.8281 203.601 76.1641H198.986ZM210.091 76.2472C210.091 74.8281 210.947 74.0099 212.168 74.0099C213.363 74.0099 214.079 74.7962 214.079 76.1065V82H216.393V75.7486C216.4 73.3963 215.057 72.054 213.031 72.054C211.561 72.054 210.551 72.7571 210.104 73.8501H209.988V72.1818H207.777V82H210.091V76.2472ZM223.648 72.1818H221.711V69.8295H219.398V72.1818H218.004V73.9716H219.398V79.4304C219.385 81.2777 220.727 82.1854 222.466 82.1342C223.124 82.1151 223.578 81.9872 223.827 81.9041L223.437 80.0952C223.309 80.1271 223.047 80.1847 222.76 80.1847C222.178 80.1847 221.711 79.9801 221.711 79.0469V73.9716H223.648V72.1818ZM228.409 82.1982C229.949 82.1982 230.87 81.4759 231.292 80.6513H231.368V82H233.593V75.429C233.593 72.8338 231.477 72.054 229.604 72.054C227.539 72.054 225.954 72.9744 225.443 74.7642L227.603 75.071C227.833 74.3999 228.485 73.8246 229.617 73.8246C230.691 73.8246 231.279 74.3743 231.279 75.3395V75.3778C231.279 76.0426 230.582 76.0746 228.85 76.2599C226.945 76.4645 225.123 77.0334 225.123 79.245C225.123 81.1754 226.536 82.1982 228.409 82.1982ZM229.01 80.4979C228.044 80.4979 227.354 80.0568 227.354 79.2067C227.354 78.3182 228.127 77.9474 229.163 77.8004C229.77 77.7173 230.985 77.5639 231.285 77.321V78.478C231.285 79.571 230.403 80.4979 229.01 80.4979ZM240.822 72.1818H238.885V69.8295H236.571V72.1818H235.178V73.9716H236.571V79.4304C236.559 81.2777 237.901 82.1854 239.64 82.1342C240.298 82.1151 240.752 81.9872 241.001 81.9041L240.611 80.0952C240.483 80.1271 240.221 80.1847 239.934 80.1847C239.352 80.1847 238.885 79.9801 238.885 79.0469V73.9716H240.822V72.1818ZM242.757 82H245.071V72.1818H242.757V82ZM243.921 70.7884C244.656 70.7884 245.257 70.2259 245.257 69.5355C245.257 68.8388 244.656 68.2763 243.921 68.2763C243.179 68.2763 242.578 68.8388 242.578 69.5355C242.578 70.2259 243.179 70.7884 243.921 70.7884ZM256.221 72.1818H253.76L251.497 79.4751H251.395L249.138 72.1818H246.671L250.167 82H252.724L256.221 72.1818ZM261.834 82.1918C264.123 82.1918 265.695 81.0732 266.104 79.3665L263.944 79.1236C263.631 79.9545 262.863 80.3892 261.866 80.3892C260.371 80.3892 259.38 79.4048 259.361 77.7237H266.2V77.0142C266.2 73.5689 264.129 72.054 261.713 72.054C258.9 72.054 257.066 74.1186 257.066 77.1484C257.066 80.2294 258.875 82.1918 261.834 82.1918ZM259.367 76.1641C259.437 74.9112 260.364 73.8565 261.745 73.8565C263.074 73.8565 263.969 74.8281 263.982 76.1641H259.367ZM158.291 92.9091V106H160.567V96.9872H160.688L164.306 105.962H166.006L169.624 97.0064H169.746V106H172.021V92.9091H169.119L165.233 102.395H165.08L161.193 92.9091H158.291ZM177.327 106.198C178.867 106.198 179.788 105.476 180.21 104.651H180.286V106H182.511V99.429C182.511 96.8338 180.395 96.054 178.522 96.054C176.457 96.054 174.872 96.9744 174.361 98.7642L176.521 99.071C176.751 98.3999 177.403 97.8246 178.535 97.8246C179.609 97.8246 180.197 98.3743 180.197 99.3395V99.3778C180.197 100.043 179.5 100.075 177.768 100.26C175.863 100.464 174.041 101.033 174.041 103.245C174.041 105.175 175.454 106.198 177.327 106.198ZM177.928 104.498C176.962 104.498 176.272 104.057 176.272 103.207C176.272 102.318 177.045 101.947 178.081 101.8C178.688 101.717 179.903 101.564 180.203 101.321V102.478C180.203 103.571 179.321 104.498 177.928 104.498ZM184.837 106H187.151V96.1818H184.837V106ZM186.001 94.7884C186.736 94.7884 187.337 94.2259 187.337 93.5355C187.337 92.8388 186.736 92.2763 186.001 92.2763C185.259 92.2763 184.658 92.8388 184.658 93.5355C184.658 94.2259 185.259 94.7884 186.001 94.7884ZM191.845 100.247C191.845 98.8281 192.701 98.0099 193.922 98.0099C195.117 98.0099 195.833 98.7962 195.833 100.107V106H198.147V99.7486C198.154 97.3963 196.811 96.054 194.785 96.054C193.315 96.054 192.305 96.7571 191.857 97.8501H191.742V96.1818H189.531V106H191.845V100.247ZM205.402 96.1818H203.465V93.8295H201.151V96.1818H199.758V97.9716H201.151V103.43C201.139 105.278 202.481 106.185 204.22 106.134C204.878 106.115 205.332 105.987 205.581 105.904L205.191 104.095C205.063 104.127 204.801 104.185 204.514 104.185C203.932 104.185 203.465 103.98 203.465 103.047V97.9716H205.402V96.1818ZM211.578 106.192C213.867 106.192 215.439 105.073 215.848 103.366L213.688 103.124C213.375 103.955 212.608 104.389 211.61 104.389C210.115 104.389 209.124 103.405 209.105 101.724H215.944V101.014C215.944 97.5689 213.873 96.054 211.457 96.054C208.645 96.054 206.81 98.1186 206.81 101.148C206.81 104.229 208.619 106.192 211.578 106.192ZM209.111 100.164C209.181 98.9112 210.108 97.8565 211.489 97.8565C212.819 97.8565 213.713 98.8281 213.726 100.164H209.111ZM220.216 100.247C220.216 98.8281 221.072 98.0099 222.293 98.0099C223.488 98.0099 224.204 98.7962 224.204 100.107V106H226.518V99.7486C226.525 97.3963 225.182 96.054 223.156 96.054C221.686 96.054 220.676 96.7571 220.229 97.8501H220.113V96.1818H217.902V106H220.216V100.247ZM231.696 106.198C233.236 106.198 234.157 105.476 234.579 104.651H234.655V106H236.88V99.429C236.88 96.8338 234.764 96.054 232.891 96.054C230.827 96.054 229.241 96.9744 228.73 98.7642L230.89 99.071C231.121 98.3999 231.773 97.8246 232.904 97.8246C233.978 97.8246 234.566 98.3743 234.566 99.3395V99.3778C234.566 100.043 233.869 100.075 232.137 100.26C230.232 100.464 228.41 101.033 228.41 103.245C228.41 105.175 229.823 106.198 231.696 106.198ZM232.297 104.498C231.331 104.498 230.641 104.057 230.641 103.207C230.641 102.318 231.415 101.947 232.45 101.8C233.057 101.717 234.272 101.564 234.572 101.321V102.478C234.572 103.571 233.69 104.498 232.297 104.498ZM241.52 100.247C241.52 98.8281 242.377 98.0099 243.598 98.0099C244.793 98.0099 245.509 98.7962 245.509 100.107V106H247.823V99.7486C247.829 97.3963 246.487 96.054 244.461 96.054C242.991 96.054 241.981 96.7571 241.533 97.8501H241.418V96.1818H239.206V106H241.52V100.247ZM254.458 106.192C256.925 106.192 258.498 104.728 258.664 102.644H256.452C256.254 103.699 255.493 104.306 254.477 104.306C253.032 104.306 252.099 103.098 252.099 101.091C252.099 99.1094 253.052 97.9205 254.477 97.9205C255.589 97.9205 256.273 98.6364 256.452 99.5824H258.664C258.504 97.4538 256.842 96.054 254.445 96.054C251.569 96.054 249.753 98.1314 249.753 101.129C249.753 104.102 251.524 106.192 254.458 106.192ZM264.911 106.192C267.199 106.192 268.771 105.073 269.18 103.366L267.02 103.124C266.707 103.955 265.94 104.389 264.942 104.389C263.447 104.389 262.456 103.405 262.437 101.724H269.276V101.014C269.276 97.5689 267.205 96.054 264.789 96.054C261.977 96.054 260.142 98.1186 260.142 101.148C260.142 104.229 261.951 106.192 264.911 106.192ZM262.443 100.164C262.513 98.9112 263.44 97.8565 264.821 97.8565C266.151 97.8565 267.045 98.8281 267.058 100.164H262.443Z" fill="#262B35"/>
<rect opacity="0.6" x="72" y="62.5" width="55" height="55" rx="24" fill="#F1C1C9"/>
<path fill-rule="evenodd" clip-rule="evenodd" d="M108.735 75.9902L99.7332 72.0506C99.5801 71.9838 99.4062 71.9838 99.2531 72.0506L90.2512 75.9902C90.0326 76.0856 89.8912 76.3013 89.8911 76.5398V85.9598C89.8944 88.0768 90.9119 90.064 92.6277 91.3046L98.8492 95.7908C99.2335 96.0688 99.7528 96.0688 100.137 95.7908L106.359 91.3052C108.074 90.0646 109.092 88.0774 109.095 85.9604V76.5398C109.095 76.3013 108.954 76.0856 108.735 75.9902ZM107.895 85.9604C107.892 87.6919 107.06 89.3173 105.656 90.332L99.4932 94.7762L93.3298 90.332C91.9264 89.3173 91.0941 87.6919 91.0914 85.9604V76.9322L99.4932 73.2554L107.895 76.9322V85.9604ZM99.2535 74.6708L92.6521 77.5604C92.4335 77.6558 92.2921 77.8716 92.292 78.11V85.961C92.2938 87.3072 92.941 88.5709 94.0324 89.3594L99.1424 93.0446C99.3521 93.1958 99.635 93.1958 99.8446 93.0446L104.955 89.3594C106.046 88.5709 106.693 87.3072 106.695 85.961V78.11C106.695 77.8716 106.554 77.6558 106.335 77.5604L99.7336 74.6708C99.5805 74.604 99.4065 74.604 99.2535 74.6708ZM105.495 78.5018V85.961C105.493 86.9216 105.031 87.8233 104.253 88.3862L99.4935 91.8182L94.7345 88.3862C93.9559 87.8233 93.4941 86.9216 93.4922 85.961V78.5018L99.4935 75.8756L105.495 78.5018ZM85.1635 88.8878L86.4616 91.9202C87.4734 91.25 88.8044 91.3191 89.7413 92.0906C90.7506 93.0182 91.9131 93.764 93.177 94.295C93.9718 94.5757 94.6671 95.0827 95.1772 95.7536C96.0474 96.8773 96.5111 98.2626 96.4927 99.6836V100.8C97.1556 100.8 97.693 101.337 97.693 102V106.8C97.693 107.463 97.1556 108 96.4927 108H89.8913C89.2284 108 88.6911 107.463 88.6911 106.8V102C88.6917 101.697 88.808 101.405 89.0163 101.184L85.3178 97.4858C84.7736 96.9427 84.3322 96.3056 84.0149 95.6054L81.663 90.4328C81.3869 89.8076 81.4654 89.0827 81.869 88.5311C82.2725 87.9795 82.9397 87.685 83.6192 87.7586C84.2988 87.8322 84.8875 88.2626 85.1635 88.8878ZM89.8913 106.8H96.4927V102H89.8913V106.8ZM95.2925 99.6836C95.3107 98.5351 94.94 97.4142 94.2404 96.503C93.8732 96.0142 93.3718 95.6427 92.7971 95.4338C91.3868 94.86 90.0902 94.0391 88.9683 93.0098C88.4071 92.5474 87.6008 92.534 87.0245 92.9774C87.241 93.301 87.4888 93.6024 87.7645 93.8774L90.5059 96.6188C90.6619 96.7694 90.7244 96.9925 90.6695 97.2023C90.6146 97.4121 90.4507 97.5759 90.2409 97.6308C90.0311 97.6857 89.8079 97.6232 89.6573 97.4672L86.9159 94.7258C86.2727 94.0847 85.7589 93.3259 85.4024 92.4908L84.0599 89.3606C83.948 89.098 83.69 88.9278 83.4045 88.928C83.162 88.9281 82.9361 89.0514 82.8048 89.2553C82.6735 89.4592 82.6548 89.7158 82.7552 89.9366L85.1071 95.1092C85.3653 95.6782 85.7241 96.1959 86.1663 96.6374L90.33 100.8H95.2925V99.6836ZM94.6927 103.8H94.0927C93.7613 103.8 93.4927 104.069 93.4927 104.4C93.4927 104.732 93.7613 105 94.0927 105H94.6927C95.024 105 95.2927 104.732 95.2927 104.4C95.2927 104.069 95.024 103.8 94.6927 103.8ZM117.324 90.4327L114.973 95.6053C114.655 96.3056 114.214 96.9426 113.67 97.4857L109.971 101.184C110.179 101.405 110.296 101.697 110.296 102V106.8C110.296 107.463 109.759 108 109.096 108H102.495C101.832 108 101.294 107.463 101.294 106.8V102C101.294 101.337 101.832 100.8 102.495 100.8V99.6835C102.476 98.2619 102.94 96.8759 103.81 95.7517C104.32 95.0809 105.016 94.5739 105.81 94.2931C107.074 93.7622 108.237 93.0163 109.246 92.0887C110.182 91.3148 111.514 91.2418 112.529 91.9087L113.824 88.8877C114.093 88.2515 114.684 87.8095 115.371 87.7315C116.057 87.6535 116.732 87.9516 117.137 88.5113C117.542 89.071 117.614 89.8054 117.324 90.4327ZM102.495 106.8H109.096V102H102.495V106.8ZM103.695 100.8H108.657L112.819 96.6379C113.261 96.1964 113.62 95.6787 113.878 95.1097L116.23 89.9371C116.33 89.7164 116.311 89.4597 116.18 89.2558C116.049 89.0519 115.823 88.9286 115.58 88.9285C115.295 88.9284 115.037 89.0983 114.925 89.3605L113.583 92.4913C113.226 93.3265 112.712 94.0852 112.069 94.7263L109.328 97.4677C109.092 97.6951 108.718 97.6918 108.486 97.4604C108.255 97.229 108.252 96.8547 108.479 96.6193L111.221 93.8779C111.498 93.6014 111.747 93.2979 111.964 92.9719C111.386 92.5282 110.577 92.5439 110.017 93.0097C108.895 94.0392 107.598 94.8601 106.187 95.4337C105.614 95.6434 105.113 96.015 104.747 96.5035C104.048 97.4145 103.677 98.5352 103.695 99.6835V100.8ZM104.895 103.8H104.295C103.963 103.8 103.695 104.069 103.695 104.4C103.695 104.732 103.963 105 104.295 105H104.895C105.226 105 105.495 104.732 105.495 104.4C105.495 104.069 105.226 103.8 104.895 103.8ZM95.4121 84.8403C95.6109 84.5752 95.9871 84.5214 96.2522 84.7203L98.145 86.1399L102.594 79.4673C102.713 79.2889 102.918 79.1876 103.132 79.2015C103.346 79.2153 103.537 79.3422 103.632 79.5345C103.727 79.7267 103.712 79.9549 103.593 80.1333L98.792 87.3333C98.7005 87.4705 98.5566 87.564 98.3941 87.5919C98.3606 87.5973 98.3266 87.6002 98.2927 87.6003C98.1628 87.6003 98.0365 87.5582 97.9326 87.4803L95.5321 85.6803C95.2669 85.4814 95.2132 85.1054 95.4121 84.8403Z" fill="#D62642"/>
<defs>
<filter id="filter0_d" x="0" y="0" width="456" height="192" filterUnits="userSpaceOnUse" color-interpolation-filters="sRGB">
<feFlood flood-opacity="0" result="BackgroundImageFix"/>
<feColorMatrix in="SourceAlpha" type="matrix" values="0 0 0 0 0 0 0 0 0 0 0 0 0 0 0 0 0 0 127 0" result="hardAlpha"/>
<feOffset dy="6"/>
<feGaussianBlur stdDeviation="24"/>
<feColorMatrix type="matrix" values="0 0 0 0 0 0 0 0 0 0 0 0 0 0 0 0 0 0 0.1 0"/>
<feBlend mode="normal" in2="BackgroundImageFix" result="effect1_dropShadow"/>
<feBlend mode="normal" in="SourceGraphic" in2="effect1_dropShadow" result="shape"/>
</filter>
</defs>
</svg>
