<svg width="456" height="192" viewBox="0 0 456 192" fill="none" xmlns="http://www.w3.org/2000/svg">
<g filter="url(#filter0_d)">
<rect x="48" y="42" width="360" height="96" rx="16" fill="white"/>
</g>
<path d="M158.291 97H166.857V95.0121H160.663V91.4389H166.364V89.451H160.663V85.897H166.805V83.9091H158.291V97ZM177.988 100.682V87.1818H175.713V88.8054H175.578C175.227 88.0959 174.505 87.054 172.772 87.054C170.503 87.054 168.72 88.831 168.72 92.1037C168.72 95.3381 170.452 97.1726 172.766 97.1726C174.453 97.1726 175.214 96.169 175.578 95.4531H175.674V100.682H177.988ZM175.719 92.0909C175.719 93.9957 174.888 95.2741 173.412 95.2741C171.884 95.2741 171.078 93.9318 171.078 92.0909C171.078 90.2628 171.871 88.9524 173.412 88.9524C174.901 88.9524 175.719 90.1861 175.719 92.0909ZM186.63 92.8707C186.63 94.3665 185.563 95.108 184.54 95.108C183.428 95.108 182.686 94.3217 182.686 93.0753V87.1818H180.373V93.4332C180.373 95.7919 181.715 97.1278 183.645 97.1278C185.115 97.1278 186.151 96.3544 186.598 95.255H186.701V97H188.944V87.1818H186.63V92.8707ZM191.324 97H193.638V87.1818H191.324V97ZM192.487 85.7884C193.222 85.7884 193.823 85.2259 193.823 84.5355C193.823 83.8388 193.222 83.2763 192.487 83.2763C191.746 83.2763 191.145 83.8388 191.145 84.5355C191.145 85.2259 191.746 85.7884 192.487 85.7884ZM196.017 100.682H198.331V95.4531H198.427C198.791 96.169 199.552 97.1726 201.239 97.1726C203.553 97.1726 205.286 95.3381 205.286 92.1037C205.286 88.831 203.502 87.054 201.233 87.054C199.501 87.054 198.778 88.0959 198.427 88.8054H198.293V87.1818H196.017V100.682ZM198.286 92.0909C198.286 90.1861 199.104 88.9524 200.594 88.9524C202.134 88.9524 202.927 90.2628 202.927 92.0909C202.927 93.9318 202.121 95.2741 200.594 95.2741C199.117 95.2741 198.286 93.9957 198.286 92.0909ZM207.267 97H209.581V91.0298C209.581 89.8217 210.386 89.0036 211.384 89.0036C212.362 89.0036 213.033 89.6619 213.033 90.6719V97H215.302V90.8764C215.302 89.7706 215.96 89.0036 217.079 89.0036C218.012 89.0036 218.754 89.5533 218.754 90.7678V97H221.074V90.4098C221.074 88.2173 219.808 87.054 218.006 87.054C216.58 87.054 215.494 87.7571 215.059 88.8501H214.957C214.58 87.7379 213.627 87.054 212.304 87.054C210.987 87.054 210.003 87.7315 209.594 88.8501H209.479V87.1818H207.267V97ZM227.768 97.1918C230.056 97.1918 231.629 96.0732 232.038 94.3665L229.877 94.1236C229.564 94.9545 228.797 95.3892 227.8 95.3892C226.304 95.3892 225.313 94.4048 225.294 92.7237H232.134V92.0142C232.134 88.5689 230.063 87.054 227.646 87.054C224.834 87.054 222.999 89.1186 222.999 92.1484C222.999 95.2294 224.808 97.1918 227.768 97.1918ZM225.301 91.1641C225.371 89.9112 226.298 88.8565 227.678 88.8565C229.008 88.8565 229.903 89.8281 229.916 91.1641H225.301ZM236.405 91.2472C236.405 89.8281 237.262 89.0099 238.483 89.0099C239.678 89.0099 240.394 89.7962 240.394 91.1065V97H242.708V90.7486C242.714 88.3963 241.372 87.054 239.346 87.054C237.875 87.054 236.865 87.7571 236.418 88.8501H236.303V87.1818H234.091V97H236.405V91.2472ZM249.963 87.1818H248.026V84.8295H245.712V87.1818H244.319V88.9716H245.712V94.4304C245.699 96.2777 247.042 97.1854 248.78 97.1342C249.439 97.1151 249.892 96.9872 250.142 96.9041L249.752 95.0952C249.624 95.1271 249.362 95.1847 249.074 95.1847C248.493 95.1847 248.026 94.9801 248.026 94.0469V88.9716H249.963V87.1818ZM268.162 90.4545C268.162 86.223 265.58 83.7301 262.148 83.7301C258.709 83.7301 256.133 86.223 256.133 90.4545C256.133 94.6797 258.709 97.179 262.148 97.179C265.58 97.179 268.162 94.6861 268.162 90.4545ZM265.778 90.4545C265.778 93.4332 264.282 95.0504 262.148 95.0504C260.019 95.0504 258.517 93.4332 258.517 90.4545C258.517 87.4759 260.019 85.8587 262.148 85.8587C264.282 85.8587 265.778 87.4759 265.778 90.4545ZM270.302 100.682H272.616V95.4531H272.712C273.076 96.169 273.837 97.1726 275.525 97.1726C277.838 97.1726 279.571 95.3381 279.571 92.1037C279.571 88.831 277.787 87.054 275.518 87.054C273.786 87.054 273.064 88.0959 272.712 88.8054H272.578V87.1818H270.302V100.682ZM272.571 92.0909C272.571 90.1861 273.39 88.9524 274.879 88.9524C276.419 88.9524 277.212 90.2628 277.212 92.0909C277.212 93.9318 276.407 95.2741 274.879 95.2741C273.402 95.2741 272.571 93.9957 272.571 92.0909ZM286.455 87.1818H284.518V84.8295H282.204V87.1818H280.811V88.9716H282.204V94.4304C282.191 96.2777 283.534 97.1854 285.272 97.1342C285.931 97.1151 286.385 96.9872 286.634 96.9041L286.244 95.0952C286.116 95.1271 285.854 95.1847 285.566 95.1847C284.985 95.1847 284.518 94.9801 284.518 94.0469V88.9716H286.455V87.1818ZM288.39 97H290.704V87.1818H288.39V97ZM289.553 85.7884C290.289 85.7884 290.889 85.2259 290.889 84.5355C290.889 83.8388 290.289 83.2763 289.553 83.2763C288.812 83.2763 288.211 83.8388 288.211 84.5355C288.211 85.2259 288.812 85.7884 289.553 85.7884ZM293.083 97H295.397V91.0298C295.397 89.8217 296.203 89.0036 297.2 89.0036C298.178 89.0036 298.849 89.6619 298.849 90.6719V97H301.118V90.8764C301.118 89.7706 301.777 89.0036 302.895 89.0036C303.828 89.0036 304.57 89.5533 304.57 90.7678V97H306.89V90.4098C306.89 88.2173 305.625 87.054 303.822 87.054C302.397 87.054 301.31 87.7571 300.875 88.8501H300.773C300.396 87.7379 299.444 87.054 298.12 87.054C296.804 87.054 295.819 87.7315 295.41 88.8501H295.295V87.1818H293.083V97ZM309.238 97H311.552V87.1818H309.238V97ZM310.401 85.7884C311.136 85.7884 311.737 85.2259 311.737 84.5355C311.737 83.8388 311.136 83.2763 310.401 83.2763C309.66 83.2763 309.059 83.8388 309.059 84.5355C309.059 85.2259 309.66 85.7884 310.401 85.7884ZM313.803 97H321.864V95.0824H316.878V94.9993L321.697 88.7607V87.1818H313.969V89.0994H318.866V89.1825L313.803 95.5298V97ZM328.104 97.1918C330.392 97.1918 331.965 96.0732 332.374 94.3665L330.213 94.1236C329.9 94.9545 329.133 95.3892 328.136 95.3892C326.64 95.3892 325.649 94.4048 325.63 92.7237H332.47V92.0142C332.47 88.5689 330.399 87.054 327.982 87.054C325.17 87.054 323.335 89.1186 323.335 92.1484C323.335 95.2294 325.144 97.1918 328.104 97.1918ZM325.637 91.1641C325.707 89.9112 326.634 88.8565 328.014 88.8565C329.344 88.8565 330.239 89.8281 330.252 91.1641H325.637ZM334.427 97H336.741V91.228C336.741 89.9815 337.681 89.0994 338.953 89.0994C339.343 89.0994 339.828 89.1697 340.027 89.2337V87.1051C339.816 87.0668 339.451 87.0412 339.196 87.0412C338.071 87.0412 337.131 87.6804 336.773 88.8182H336.671V87.1818H334.427V97Z" fill="#262B35"/>
<rect opacity="0.6" x="72" y="62.5" width="55" height="55" rx="24" fill="#C5D7F2"/>
<path fill-rule="evenodd" clip-rule="evenodd" d="M116.798 71.576C115.917 71.5227 110.675 71.3461 104.584 74.2216C104.512 74.2555 104.448 74.3035 104.395 74.3618C100.244 76.362 95.7528 79.7738 92.0938 85.5782L87.396 85.2572C87.1345 85.2307 86.8927 85.3967 86.7972 85.6463L83.1585 95.1765C83.0607 95.4323 83.1405 95.7231 83.3542 95.8897C83.461 95.9733 83.5893 96.0151 83.7171 96.0151C83.8437 96.0151 83.9703 95.9746 84.0771 95.8922L87.0973 93.5712L88.6777 93.895L91.0611 96.3376L90.4083 97.5396C89.6145 97.139 88.6941 97.0405 87.796 97.2736C86.5943 97.5866 85.6116 98.4265 85.1004 99.5794L81.5535 107.577C81.4497 107.811 81.4983 108.085 81.6753 108.266C81.7899 108.384 81.9435 108.446 82.0995 108.446C82.1835 108.446 82.2681 108.428 82.3479 108.391L90.1515 104.755C91.2758 104.232 92.0954 103.225 92.4007 101.993C92.6362 101.044 92.526 100.068 92.1022 99.2365L93.2155 98.5461L95.6986 101.091L96.0143 102.709L93.7495 105.804C93.5887 106.024 93.5893 106.326 93.7519 106.545C93.8677 106.701 94.0458 106.788 94.2294 106.788C94.3026 106.788 94.3764 106.774 94.4484 106.747L103.748 103.018C103.991 102.92 104.145 102.672 104.127 102.404L103.814 97.5879C109.476 93.8389 112.805 89.2378 114.757 84.984C114.674 85.062 114.571 85.1157 114.457 85.1368C114.421 85.1429 114.386 85.146 114.351 85.146C114.193 85.146 114.04 85.0821 113.926 84.9659L113.628 84.6601C111.459 89.2718 107.27 94.8486 99.1891 98.8263C98.2882 99.269 97.3566 99.6839 96.3981 100.069L94.3527 97.9728L99.2184 94.8248C99.3486 94.7401 99.4405 94.6089 99.4785 94.4598C99.4914 94.4094 99.4982 94.357 99.4982 94.3035V90.6144C99.4983 90.275 99.2295 89.9995 98.8983 89.9995H94.8558C94.7342 89.9995 94.618 90.0373 94.5206 90.1046C94.4422 90.1584 94.3759 90.2314 94.3287 90.3191L94.2507 90.4642L91.6673 95.2213L89.6736 93.1774C90.1167 92.0189 90.6004 90.8988 91.1212 89.8234C94.8672 82.1057 100.027 77.87 104.741 75.553L111.888 73.1957C113.937 72.8219 115.517 72.7803 116.293 72.7915C116.306 73.6533 116.265 75.4778 115.825 77.8234C116.267 75.4732 116.308 73.6498 116.294 72.7896C115.535 72.7765 114.004 72.8104 112.02 73.1522L116.798 71.576ZM112.02 73.1522C110.255 73.4562 108.133 74.0039 105.879 74.979L105.911 75.012C108.105 74.0603 110.163 73.5104 111.888 73.1957L112.02 73.1522ZM89.2576 99.6586L89.8233 98.6169C89.4922 98.4599 89.1295 98.3792 88.7584 98.3792C88.5376 98.3792 88.3139 98.4076 88.0912 98.4653C87.2447 98.6854 86.5523 99.2769 86.193 100.087L83.3078 106.593L89.6553 103.636C90.4461 103.267 91.0232 102.558 91.238 101.691C91.3898 101.077 91.334 100.451 91.088 99.9084L90.0771 100.494C89.8431 100.63 89.5485 100.59 89.3577 100.394C89.2047 100.237 89.1485 100.012 89.2007 99.805C89.2133 99.7547 89.2321 99.7055 89.2576 99.6586ZM90.4649 88.4372C90.7585 87.8651 91.0625 87.306 91.3767 86.761L87.7542 86.5138L85.0442 93.6116L86.5915 92.4225C86.7283 92.318 86.9023 92.2775 87.0691 92.3113L88.5962 92.6241C89.1738 91.1246 89.7997 89.7315 90.4649 88.4372ZM92.2392 96.697L91.4055 98.2322L98.2981 93.9574V91.2297H95.2096L92.3514 96.5482C92.3213 96.6041 92.2833 96.6541 92.2392 96.697ZM96.9376 101.173L97.2429 102.738C97.2765 102.909 97.2369 103.087 97.1349 103.227L95.9746 104.813L102.901 102.035L102.659 98.3235C102.132 98.6426 101.591 98.9515 101.038 99.2498C99.771 99.9346 98.4066 100.579 96.9376 101.173ZM107.996 81.2921C105.978 79.2243 102.696 79.2243 100.678 81.2921C98.6606 83.3599 98.6606 86.7238 100.678 88.7916C101.687 89.8258 103.012 90.3423 104.337 90.3423C105.662 90.3423 106.987 89.8252 107.996 88.7916C110.014 86.7238 110.014 83.3598 107.996 81.2921ZM107.148 87.9221C105.598 89.5103 103.076 89.5103 101.527 87.9221C99.977 86.3339 99.977 83.7497 101.527 82.1615C102.301 81.3677 103.319 80.9705 104.337 80.9705C105.354 80.9705 106.373 81.3677 107.148 82.1615C108.697 83.7497 108.697 86.3339 107.148 87.9221ZM103.144 86.2644C103.802 86.9389 104.872 86.9396 105.53 86.2644C105.764 86.024 106.144 86.024 106.378 86.2644C106.613 86.5048 106.613 86.8935 106.378 87.1339C105.816 87.7106 105.077 87.999 104.337 87.999C103.598 87.999 102.858 87.7106 102.295 87.1339C101.17 85.9804 101.17 84.1031 102.295 82.9496C103.421 81.7961 105.253 81.7961 106.378 82.9496C106.613 83.19 106.613 83.5786 106.378 83.819C106.144 84.0594 105.764 84.0594 105.53 83.819C104.872 83.1445 103.801 83.1451 103.144 83.819C102.486 84.4936 102.486 85.5899 103.144 86.2644Z" fill="#2682D6"/>
<defs>
<filter id="filter0_d" x="0" y="0" width="456" height="192" filterUnits="userSpaceOnUse" color-interpolation-filters="sRGB">
<feFlood flood-opacity="0" result="BackgroundImageFix"/>
<feColorMatrix in="SourceAlpha" type="matrix" values="0 0 0 0 0 0 0 0 0 0 0 0 0 0 0 0 0 0 127 0" result="hardAlpha"/>
<feOffset dy="6"/>
<feGaussianBlur stdDeviation="24"/>
<feColorMatrix type="matrix" values="0 0 0 0 0 0 0 0 0 0 0 0 0 0 0 0 0 0 0.1 0"/>
<feBlend mode="normal" in2="BackgroundImageFix" result="effect1_dropShadow"/>
<feBlend mode="normal" in="SourceGraphic" in2="effect1_dropShadow" result="shape"/>
</filter>
</defs>
</svg>
