<svg width="456" height="192" viewBox="0 0 456 192" fill="none" xmlns="http://www.w3.org/2000/svg">
<g filter="url(#filter0_d)">
<rect x="48" y="42" width="360" height="96" rx="16" fill="white"/>
</g>
<path d="M157.716 85.897H161.762V97H164.114V85.897H168.161V83.9091H157.716V85.897ZM169.052 97H171.366V91.228C171.366 89.9815 172.306 89.0994 173.578 89.0994C173.968 89.0994 174.453 89.1697 174.652 89.2337V87.1051C174.441 87.0668 174.076 87.0412 173.821 87.0412C172.696 87.0412 171.756 87.6804 171.398 88.8182H171.296V87.1818H169.052V97ZM180.067 97.1918C182.944 97.1918 184.772 95.1655 184.772 92.1293C184.772 89.0866 182.944 87.054 180.067 87.054C177.191 87.054 175.363 89.0866 175.363 92.1293C175.363 95.1655 177.191 97.1918 180.067 97.1918ZM180.08 95.3381C178.488 95.3381 177.709 93.919 177.709 92.1229C177.709 90.3267 178.488 88.8885 180.08 88.8885C181.646 88.8885 182.426 90.3267 182.426 92.1229C182.426 93.919 181.646 95.3381 180.08 95.3381ZM192.994 92.8707C192.994 94.3665 191.926 95.108 190.903 95.108C189.791 95.108 189.05 94.3217 189.05 93.0753V87.1818H186.736V93.4332C186.736 95.7919 188.078 97.1278 190.009 97.1278C191.479 97.1278 192.514 96.3544 192.962 95.255H193.064V97H195.308V87.1818H192.994V92.8707ZM197.789 97H200.065V95.4531H200.199C200.563 96.169 201.324 97.1726 203.012 97.1726C205.325 97.1726 207.058 95.3381 207.058 92.1037C207.058 88.831 205.274 87.054 203.005 87.054C201.273 87.054 200.551 88.0959 200.199 88.8054H200.103V83.9091H197.789V97ZM200.058 92.0909C200.058 90.1861 200.877 88.9524 202.366 88.9524C203.906 88.9524 204.699 90.2628 204.699 92.0909C204.699 93.9318 203.894 95.2741 202.366 95.2741C200.889 95.2741 200.058 93.9957 200.058 92.0909ZM211.339 83.9091H209.025V97H211.339V83.9091ZM218.065 97.1918C220.353 97.1918 221.926 96.0732 222.335 94.3665L220.174 94.1236C219.861 94.9545 219.094 95.3892 218.097 95.3892C216.601 95.3892 215.61 94.4048 215.591 92.7237H222.431V92.0142C222.431 88.5689 220.36 87.054 217.943 87.054C215.131 87.054 213.296 89.1186 213.296 92.1484C213.296 95.2294 215.105 97.1918 218.065 97.1918ZM215.597 91.1641C215.668 89.9112 216.595 88.8565 217.975 88.8565C219.305 88.8565 220.2 89.8281 220.213 91.1641H215.597ZM232.148 89.777C231.828 88.1151 230.499 87.054 228.198 87.054C225.833 87.054 224.222 88.2173 224.228 90.0327C224.222 91.4645 225.104 92.4105 226.99 92.8004L228.664 93.152C229.566 93.3501 229.988 93.7145 229.988 94.2706C229.988 94.9418 229.259 95.4467 228.159 95.4467C227.098 95.4467 226.408 94.9865 226.21 94.1044L223.953 94.3217C224.241 96.1243 225.756 97.1918 228.166 97.1918C230.62 97.1918 232.353 95.9197 232.359 94.0597C232.353 92.6598 231.451 91.8033 229.598 91.4006L227.923 91.0426C226.926 90.8189 226.529 90.4737 226.536 89.9048C226.529 89.2401 227.265 88.7798 228.23 88.7798C229.297 88.7798 229.86 89.3615 230.039 90.0071L232.148 89.777ZM236.581 91.2472C236.581 89.8281 237.463 89.0099 238.703 89.0099C239.918 89.0099 240.634 89.7834 240.634 91.1065V97H242.947V90.7486C242.947 88.3771 241.605 87.054 239.566 87.054C238.058 87.054 237.099 87.7379 236.645 88.8501H236.53V83.9091H234.267V97H236.581V91.2472ZM249.589 97.1918C252.465 97.1918 254.293 95.1655 254.293 92.1293C254.293 89.0866 252.465 87.054 249.589 87.054C246.712 87.054 244.884 89.0866 244.884 92.1293C244.884 95.1655 246.712 97.1918 249.589 97.1918ZM249.602 95.3381C248.01 95.3381 247.23 93.919 247.23 92.1229C247.23 90.3267 248.01 88.8885 249.602 88.8885C251.168 88.8885 251.947 90.3267 251.947 92.1229C251.947 93.919 251.168 95.3381 249.602 95.3381ZM260.54 97.1918C263.416 97.1918 265.244 95.1655 265.244 92.1293C265.244 89.0866 263.416 87.054 260.54 87.054C257.664 87.054 255.835 89.0866 255.835 92.1293C255.835 95.1655 257.664 97.1918 260.54 97.1918ZM260.553 95.3381C258.961 95.3381 258.181 93.919 258.181 92.1229C258.181 90.3267 258.961 88.8885 260.553 88.8885C262.119 88.8885 262.899 90.3267 262.899 92.1229C262.899 93.919 262.119 95.3381 260.553 95.3381ZM272.111 87.1818H270.174V84.8295H267.86V87.1818H266.467V88.9716H267.86V94.4304C267.848 96.2777 269.19 97.1854 270.929 97.1342C271.587 97.1151 272.041 96.9872 272.29 96.9041L271.9 95.0952C271.772 95.1271 271.51 95.1847 271.223 95.1847C270.641 95.1847 270.174 94.9801 270.174 94.0469V88.9716H272.111V87.1818ZM274.046 97H276.36V87.1818H274.046V97ZM275.21 85.7884C275.945 85.7884 276.546 85.2259 276.546 84.5355C276.546 83.8388 275.945 83.2763 275.21 83.2763C274.468 83.2763 273.867 83.8388 273.867 84.5355C273.867 85.2259 274.468 85.7884 275.21 85.7884ZM281.054 91.2472C281.054 89.8281 281.91 89.0099 283.131 89.0099C284.326 89.0099 285.042 89.7962 285.042 91.1065V97H287.356V90.7486C287.363 88.3963 286.02 87.054 283.994 87.054C282.524 87.054 281.514 87.7571 281.066 88.8501H280.951V87.1818H278.74V97H281.054V91.2472ZM293.978 100.848C296.631 100.848 298.587 99.6335 298.587 97.1598V87.1818H296.305V88.8054H296.177C295.826 88.0959 295.091 87.054 293.358 87.054C291.089 87.054 289.306 88.831 289.306 92.0589C289.306 95.2614 291.089 96.8594 293.352 96.8594C295.033 96.8594 295.819 95.9581 296.177 95.2358H296.292V97.0959C296.292 98.5021 295.333 99.0966 294.017 99.0966C292.623 99.0966 292.01 98.4382 291.728 97.9013L289.645 98.4062C290.066 99.7422 291.479 100.848 293.978 100.848ZM293.998 95.044C292.47 95.044 291.664 93.8551 291.664 92.0462C291.664 90.2628 292.457 88.9524 293.998 88.9524C295.487 88.9524 296.305 90.1861 296.305 92.0462C296.305 93.919 295.474 95.044 293.998 95.044ZM314.295 88.0895H316.712C316.309 85.5199 314.085 83.7301 311.189 83.7301C307.763 83.7301 305.193 86.2486 305.193 90.4673C305.193 94.6094 307.648 97.179 311.259 97.179C314.5 97.179 316.82 95.0952 316.82 91.7202V90.1477H311.509V92.0014H314.526C314.487 93.8679 313.241 95.0504 311.272 95.0504C309.08 95.0504 307.577 93.4077 307.577 90.4418C307.577 87.495 309.105 85.8587 311.221 85.8587C312.8 85.8587 313.874 86.7024 314.295 88.0895ZM325.269 92.8707C325.269 94.3665 324.202 95.108 323.179 95.108C322.067 95.108 321.325 94.3217 321.325 93.0753V87.1818H319.011V93.4332C319.011 95.7919 320.354 97.1278 322.284 97.1278C323.754 97.1278 324.79 96.3544 325.237 95.255H325.339V97H327.583V87.1818H325.269V92.8707ZM329.962 97H332.276V87.1818H329.962V97ZM331.126 85.7884C331.861 85.7884 332.462 85.2259 332.462 84.5355C332.462 83.8388 331.861 83.2763 331.126 83.2763C330.384 83.2763 329.783 83.8388 329.783 84.5355C329.783 85.2259 330.384 85.7884 331.126 85.7884ZM338.299 97.1726C339.987 97.1726 340.747 96.169 341.112 95.4531H341.252V97H343.528V83.9091H341.208V88.8054H341.112C340.76 88.0959 340.038 87.054 338.306 87.054C336.036 87.054 334.253 88.831 334.253 92.1037C334.253 95.3381 335.985 97.1726 338.299 97.1726ZM338.945 95.2741C337.417 95.2741 336.612 93.9318 336.612 92.0909C336.612 90.2628 337.404 88.9524 338.945 88.9524C340.434 88.9524 341.252 90.1861 341.252 92.0909C341.252 93.9957 340.421 95.2741 338.945 95.2741ZM350.34 97.1918C352.629 97.1918 354.201 96.0732 354.61 94.3665L352.45 94.1236C352.136 94.9545 351.369 95.3892 350.372 95.3892C348.876 95.3892 347.886 94.4048 347.866 92.7237H354.706V92.0142C354.706 88.5689 352.635 87.054 350.219 87.054C347.406 87.054 345.572 89.1186 345.572 92.1484C345.572 95.2294 347.381 97.1918 350.34 97.1918ZM347.873 91.1641C347.943 89.9112 348.87 88.8565 350.251 88.8565C351.58 88.8565 352.475 89.8281 352.488 91.1641H347.873Z" fill="#262B35"/>
<rect opacity="0.6" x="72" y="62.5" width="55" height="55" rx="24" fill="#FAE3AF"/>
<path d="M96.3359 98.719C96.3359 100.507 97.7553 101.961 99.5 101.961C101.245 101.961 102.664 100.507 102.664 98.719C102.664 96.9311 101.245 95.4766 99.5 95.4766C97.7553 95.4766 96.3359 96.9311 96.3359 98.719ZM99.5 97.6382C100.082 97.6382 100.555 98.123 100.555 98.719C100.555 99.315 100.082 99.7998 99.5 99.7998C98.9184 99.7998 98.4453 99.315 98.4453 98.719C98.4453 98.123 98.9184 97.6382 99.5 97.6382Z" fill="#D69026"/>
<path d="M82.5547 101.962H90.3661L92.3342 105.455C92.474 105.703 92.7044 105.884 92.9746 105.959C93.2446 106.033 93.5326 105.994 93.7749 105.851L94.8406 105.22C95.4337 104.869 96.3359 105.321 96.3359 106.068V107.366C96.3359 107.963 96.8081 108.447 97.3906 108.447H101.609C102.192 108.447 102.664 107.963 102.664 107.366V106.105C102.664 105.327 103.547 104.858 104.22 105.256L105.225 105.851C105.729 106.149 106.374 105.972 106.666 105.455L108.634 101.962H116.445C117.028 101.962 117.5 101.478 117.5 100.881V72.6341C117.5 72.0372 117.028 71.5532 116.445 71.5532H103.719C101.996 71.5532 100.463 72.4048 99.5 73.7187C98.5371 72.4048 97.0045 71.5532 95.2812 71.5532H82.5547C81.9722 71.5532 81.5 72.0372 81.5 72.6341V100.881C81.5 101.478 81.9722 101.962 82.5547 101.962ZM100.555 76.9576C100.555 75.1696 101.974 73.715 103.719 73.715H115.391V99.7999H107.938C107.857 99.7999 107.778 99.8101 107.702 99.8278L107.284 99.5803C106.646 99.2028 106.67 98.2211 107.314 97.8396L108.389 97.2037C108.893 96.9054 109.067 96.2441 108.775 95.7272L106.666 91.983C106.375 91.4664 105.73 91.2888 105.225 91.5874L104.226 92.1782C103.553 92.5767 102.664 92.1163 102.664 91.3403V90.0721C102.664 89.4751 102.192 88.9912 101.609 88.9912H100.555V76.9576H100.555ZM100.555 91.1529V91.3404C100.555 93.7948 103.214 95.2737 105.281 94.0504L105.366 93.9999L106.421 95.872L106.26 95.9675C104.221 97.1737 104.174 100.236 106.229 101.452L106.421 101.566L105.366 103.438L105.275 103.384C103.216 102.166 100.555 103.641 100.555 106.105V106.285H98.4453V106.068C98.4453 103.684 95.8088 102.151 93.7859 103.348L93.6335 103.438L92.5789 101.566L92.83 101.417C94.8909 100.198 94.7084 97.132 92.6803 95.932L92.5789 95.8721L93.6336 93.9999L93.76 94.0747C95.812 95.2889 98.4453 93.7501 98.4453 91.3403V91.1529H100.555ZM83.6094 73.715H95.2812C97.0259 73.715 98.4453 75.1696 98.4453 76.9576V88.9912H97.3906C96.8082 88.9912 96.3359 89.4751 96.3359 90.0721V91.3404C96.3359 92.0861 95.4693 92.59 94.8148 92.2027L93.7749 91.5874C93.2708 91.2891 92.6254 91.4659 92.3342 91.983L90.2248 95.7272C89.9337 96.2438 90.1065 96.9053 90.6108 97.2037L91.6256 97.8041C92.2733 98.1873 92.3977 99.1769 91.7753 99.5453L91.2978 99.8278C91.222 99.8101 91.1435 99.7999 91.0625 99.7999H83.6094V73.715Z" fill="#D69026"/>
<path d="M86.7734 80.2725H95.2812C95.8637 80.2725 96.3359 79.7885 96.3359 79.1917C96.3359 78.5948 95.8637 78.1108 95.2812 78.1108H86.7734C86.191 78.1108 85.7188 78.5948 85.7188 79.1917C85.7188 79.7885 86.191 80.2725 86.7734 80.2725Z" fill="#D69026"/>
<path d="M96.3359 83.5146C96.3359 82.9176 95.8637 82.4336 95.2812 82.4336H86.7734C86.191 82.4336 85.7188 82.9176 85.7188 83.5146C85.7188 84.1117 86.191 84.5957 86.7734 84.5957H95.2812C95.8637 84.5957 96.3359 84.1117 96.3359 83.5146Z" fill="#D69026"/>
<path d="M103.719 84.5957H112.227C112.809 84.5957 113.281 84.1117 113.281 83.5146C113.281 82.9176 112.809 82.4336 112.227 82.4336H103.719C103.136 82.4336 102.664 82.9176 102.664 83.5146C102.664 84.1117 103.136 84.5957 103.719 84.5957Z" fill="#D69026"/>
<path d="M103.719 80.2725H112.227C112.809 80.2725 113.281 79.7885 113.281 79.1917C113.281 78.5948 112.809 78.1108 112.227 78.1108H103.719C103.136 78.1108 102.664 78.5948 102.664 79.1917C102.664 79.7885 103.136 80.2725 103.719 80.2725Z" fill="#D69026"/>
<defs>
<filter id="filter0_d" x="0" y="0" width="456" height="192" filterUnits="userSpaceOnUse" color-interpolation-filters="sRGB">
<feFlood flood-opacity="0" result="BackgroundImageFix"/>
<feColorMatrix in="SourceAlpha" type="matrix" values="0 0 0 0 0 0 0 0 0 0 0 0 0 0 0 0 0 0 127 0" result="hardAlpha"/>
<feOffset dy="6"/>
<feGaussianBlur stdDeviation="24"/>
<feColorMatrix type="matrix" values="0 0 0 0 0 0 0 0 0 0 0 0 0 0 0 0 0 0 0.1 0"/>
<feBlend mode="normal" in2="BackgroundImageFix" result="effect1_dropShadow"/>
<feBlend mode="normal" in="SourceGraphic" in2="effect1_dropShadow" result="shape"/>
</filter>
</defs>
</svg>
