<svg width="456" height="192" viewBox="0 0 456 192" fill="none" xmlns="http://www.w3.org/2000/svg">
<g filter="url(#filter0_d)">
<rect x="48" y="42" width="360" height="96" rx="16" fill="white"/>
</g>
<path d="M158.291 97H166.428V95.0121H160.663V83.9091H158.291V97ZM168.384 97H170.698V87.1818H168.384V97ZM169.548 85.7884C170.283 85.7884 170.884 85.2259 170.884 84.5355C170.884 83.8388 170.283 83.2763 169.548 83.2763C168.806 83.2763 168.205 83.8388 168.205 84.5355C168.205 85.2259 168.806 85.7884 169.548 85.7884ZM178.051 87.1818H176.012V86.4084C176.012 85.6413 176.331 85.2131 177.194 85.2131C177.558 85.2131 177.865 85.2962 178.057 85.3537L178.524 83.5639C178.223 83.4616 177.565 83.2955 176.766 83.2955C175.059 83.2955 173.698 84.2734 173.698 86.255V87.1818H172.247V88.9716H173.698V97H176.012V88.9716H178.051V87.1818ZM183.84 97.1918C186.129 97.1918 187.701 96.0732 188.11 94.3665L185.95 94.1236C185.636 94.9545 184.869 95.3892 183.872 95.3892C182.376 95.3892 181.386 94.4048 181.366 92.7237H188.206V92.0142C188.206 88.5689 186.135 87.054 183.719 87.054C180.906 87.054 179.072 89.1186 179.072 92.1484C179.072 95.2294 180.881 97.1918 183.84 97.1918ZM181.373 91.1641C181.443 89.9112 182.37 88.8565 183.751 88.8565C185.08 88.8565 185.975 89.8281 185.988 91.1641H181.373ZM194.446 97.1918C196.914 97.1918 198.486 95.728 198.652 93.6442H196.441C196.242 94.6989 195.482 95.3061 194.465 95.3061C193.021 95.3061 192.088 94.098 192.088 92.0909C192.088 90.1094 193.04 88.9205 194.465 88.9205C195.578 88.9205 196.262 89.6364 196.441 90.5824H198.652C198.492 88.4538 196.83 87.054 194.433 87.054C191.557 87.054 189.742 89.1314 189.742 92.1293C189.742 95.1016 191.512 97.1918 194.446 97.1918ZM201.99 100.663C203.793 100.663 204.835 99.7294 205.391 98.1889L209.335 87.1946L206.861 87.1818L204.592 94.5966H204.49L202.227 87.1818H199.772L203.333 97.2045L203.135 97.7351C202.694 98.8217 202.029 98.9048 201.019 98.6172L200.482 100.413C200.795 100.548 201.358 100.663 201.99 100.663ZM214.89 97.1918C217.357 97.1918 218.929 95.728 219.096 93.6442H216.884C216.686 94.6989 215.925 95.3061 214.909 95.3061C213.464 95.3061 212.531 94.098 212.531 92.0909C212.531 90.1094 213.483 88.9205 214.909 88.9205C216.021 88.9205 216.705 89.6364 216.884 90.5824H219.096C218.936 88.4538 217.274 87.054 214.877 87.054C212 87.054 210.185 89.1314 210.185 92.1293C210.185 95.1016 211.956 97.1918 214.89 97.1918ZM223.309 83.9091H220.996V97H223.309V83.9091ZM230.036 97.1918C232.324 97.1918 233.896 96.0732 234.305 94.3665L232.145 94.1236C231.832 94.9545 231.065 95.3892 230.067 95.3892C228.572 95.3892 227.581 94.4048 227.562 92.7237H234.401V92.0142C234.401 88.5689 232.33 87.054 229.914 87.054C227.102 87.054 225.267 89.1186 225.267 92.1484C225.267 95.2294 227.076 97.1918 230.036 97.1918ZM227.568 91.1641C227.638 89.9112 228.565 88.8565 229.946 88.8565C231.276 88.8565 232.17 89.8281 232.183 91.1641H227.568ZM240.926 97H243.297V92.5767H245.803C248.827 92.5767 250.45 90.7614 250.45 88.2429C250.45 85.7436 248.846 83.9091 245.835 83.9091H240.926V97ZM243.297 90.6271V85.8906H245.471C247.248 85.8906 248.034 86.8494 248.034 88.2429C248.034 89.6364 247.248 90.6271 245.483 90.6271H243.297ZM252.408 97H254.722V91.228C254.722 89.9815 255.661 89.0994 256.933 89.0994C257.323 89.0994 257.809 89.1697 258.007 89.2337V87.1051C257.796 87.0668 257.432 87.0412 257.176 87.0412C256.051 87.0412 255.112 87.6804 254.754 88.8182H254.651V87.1818H252.408V97ZM263.487 97.1918C265.775 97.1918 267.347 96.0732 267.757 94.3665L265.596 94.1236C265.283 94.9545 264.516 95.3892 263.519 95.3892C262.023 95.3892 261.032 94.4048 261.013 92.7237H267.852V92.0142C267.852 88.5689 265.781 87.054 263.365 87.054C260.553 87.054 258.718 89.1186 258.718 92.1484C258.718 95.2294 260.527 97.1918 263.487 97.1918ZM261.019 91.1641C261.09 89.9112 262.017 88.8565 263.397 88.8565C264.727 88.8565 265.622 89.8281 265.634 91.1641H261.019ZM273.453 97.1726C275.141 97.1726 275.902 96.169 276.266 95.4531H276.407V97H278.682V83.9091H276.362V88.8054H276.266C275.914 88.0959 275.192 87.054 273.46 87.054C271.191 87.054 269.407 88.831 269.407 92.1037C269.407 95.3381 271.14 97.1726 273.453 97.1726ZM274.099 95.2741C272.571 95.2741 271.766 93.9318 271.766 92.0909C271.766 90.2628 272.559 88.9524 274.099 88.9524C275.588 88.9524 276.407 90.1861 276.407 92.0909C276.407 93.9957 275.576 95.2741 274.099 95.2741ZM281.148 97H283.462V87.1818H281.148V97ZM282.311 85.7884C283.046 85.7884 283.647 85.2259 283.647 84.5355C283.647 83.8388 283.046 83.2763 282.311 83.2763C281.57 83.2763 280.969 83.8388 280.969 84.5355C280.969 85.2259 281.57 85.7884 282.311 85.7884ZM290.124 97.1918C292.591 97.1918 294.164 95.728 294.33 93.6442H292.118C291.92 94.6989 291.159 95.3061 290.143 95.3061C288.699 95.3061 287.765 94.098 287.765 92.0909C287.765 90.1094 288.718 88.9205 290.143 88.9205C291.255 88.9205 291.939 89.6364 292.118 90.5824H294.33C294.17 88.4538 292.508 87.054 290.111 87.054C287.235 87.054 285.419 89.1314 285.419 92.1293C285.419 95.1016 287.19 97.1918 290.124 97.1918ZM301.133 87.1818H299.196V84.8295H296.882V87.1818H295.488V88.9716H296.882V94.4304C296.869 96.2777 298.211 97.1854 299.95 97.1342C300.608 97.1151 301.062 96.9872 301.312 96.9041L300.922 95.0952C300.794 95.1271 300.532 95.1847 300.244 95.1847C299.662 95.1847 299.196 94.9801 299.196 94.0469V88.9716H301.133V87.1818ZM303.068 97H305.382V87.1818H303.068V97ZM304.231 85.7884C304.966 85.7884 305.567 85.2259 305.567 84.5355C305.567 83.8388 304.966 83.2763 304.231 83.2763C303.49 83.2763 302.889 83.8388 302.889 84.5355C302.889 85.2259 303.49 85.7884 304.231 85.7884ZM312.044 97.1918C314.92 97.1918 316.748 95.1655 316.748 92.1293C316.748 89.0866 314.92 87.054 312.044 87.054C309.167 87.054 307.339 89.0866 307.339 92.1293C307.339 95.1655 309.167 97.1918 312.044 97.1918ZM312.057 95.3381C310.465 95.3381 309.685 93.919 309.685 92.1229C309.685 90.3267 310.465 88.8885 312.057 88.8885C313.623 88.8885 314.403 90.3267 314.403 92.1229C314.403 93.919 313.623 95.3381 312.057 95.3381ZM321.026 91.2472C321.026 89.8281 321.883 89.0099 323.104 89.0099C324.299 89.0099 325.015 89.7962 325.015 91.1065V97H327.329V90.7486C327.335 88.3963 325.993 87.054 323.967 87.054C322.496 87.054 321.487 87.7571 321.039 88.8501H320.924V87.1818H318.712V97H321.026V91.2472Z" fill="#262B35"/>
<rect opacity="0.6" x="72" y="62.5" width="55" height="55" rx="24" fill="#C5F2DC"/>
<path d="M83.8541 88.0501C84.7925 82.5955 88.5498 78.1298 93.5229 76.2898L93.2894 76.7044C92.9638 77.282 93.1568 78.0206 93.7204 78.3543C93.9061 78.4641 94.1086 78.5164 94.3086 78.5164C94.7157 78.5164 95.1118 78.2999 95.3301 77.9126L96.9547 75.0301C97.1111 74.7526 97.1537 74.423 97.0727 74.1137C96.9918 73.8042 96.7945 73.5404 96.5238 73.3802L93.7103 71.7151C93.1462 71.3814 92.4258 71.5795 92.1004 72.1569C91.775 72.7345 91.968 73.4731 92.5316 73.8066L92.8251 73.9804C87.0186 76.0872 82.6256 81.2804 81.5333 87.6306C81.0047 90.6998 81.2739 93.8628 82.3115 96.778C82.4859 97.268 82.9375 97.572 83.4187 97.572C83.5528 97.572 83.6893 97.5484 83.8224 97.4986C84.4339 97.2699 84.7488 96.5767 84.5257 95.9502C83.6298 93.4335 83.3975 90.7019 83.8541 88.0501Z" fill="#1ECE7A"/>
<path d="M111.696 100.413C111.197 99.9836 110.454 100.05 110.035 100.56C106.607 104.74 101.223 106.749 95.9829 105.801C93.4392 105.341 91.0657 104.21 89.0905 102.549H89.4696C90.1206 102.549 90.6481 102.008 90.6481 101.341C90.6481 100.674 90.1206 100.134 89.4696 100.134H86.3323C86.0296 100.104 85.716 100.194 85.4646 100.41C85.2194 100.621 85.0798 100.912 85.0499 101.214C85.0498 101.215 85.0496 101.216 85.0494 101.217C85.0494 101.218 85.0494 101.218 85.0494 101.218C85.0461 101.253 85.0446 101.288 85.0443 101.323C85.0441 101.329 85.0433 101.335 85.0433 101.341L85.0421 104.669C85.0417 105.336 85.5692 105.877 86.22 105.878H86.2205C86.8711 105.878 87.3986 105.337 87.3989 104.67L87.3991 104.25C89.7237 106.264 92.5448 107.632 95.5735 108.179C96.5675 108.359 97.5657 108.447 98.5579 108.447C103.621 108.447 108.522 106.16 111.84 102.115C112.258 101.604 112.194 100.842 111.696 100.413Z" fill="#1ECE7A"/>
<path d="M117.573 94.2585C117.248 93.6809 116.527 93.483 115.963 93.8165L115.576 94.0458C115.592 93.9604 115.611 93.8756 115.625 93.7901C116.428 89.1235 115.41 84.4164 112.758 80.5352C110.106 76.6541 106.138 74.0639 101.585 73.2419C100.944 73.1263 100.333 73.5649 100.22 74.2217C100.107 74.8784 100.535 75.5048 101.176 75.6206C105.109 76.3306 108.537 78.5681 110.827 81.9208C113.114 85.2665 113.994 89.3232 113.308 93.3461L113.136 93.0397C112.81 92.4622 112.09 92.264 111.526 92.5974C110.962 92.9307 110.769 93.6693 111.094 94.247L112.718 97.1307C112.875 97.4081 113.132 97.6105 113.434 97.6934C113.535 97.7209 113.637 97.7346 113.739 97.7346C113.944 97.7346 114.148 97.6797 114.328 97.5728L117.142 95.9082C117.705 95.5746 117.899 94.836 117.573 94.2585Z" fill="#1ECE7A"/>
<defs>
<filter id="filter0_d" x="0" y="0" width="456" height="192" filterUnits="userSpaceOnUse" color-interpolation-filters="sRGB">
<feFlood flood-opacity="0" result="BackgroundImageFix"/>
<feColorMatrix in="SourceAlpha" type="matrix" values="0 0 0 0 0 0 0 0 0 0 0 0 0 0 0 0 0 0 127 0" result="hardAlpha"/>
<feOffset dy="6"/>
<feGaussianBlur stdDeviation="24"/>
<feColorMatrix type="matrix" values="0 0 0 0 0 0 0 0 0 0 0 0 0 0 0 0 0 0 0.1 0"/>
<feBlend mode="normal" in2="BackgroundImageFix" result="effect1_dropShadow"/>
<feBlend mode="normal" in="SourceGraphic" in2="effect1_dropShadow" result="shape"/>
</filter>
</defs>
</svg>
