<svg width="456" height="192" viewBox="0 0 456 192" fill="none" xmlns="http://www.w3.org/2000/svg">
<g filter="url(#filter0_d)">
<rect x="48" y="42" width="360" height="96" rx="16" fill="white"/>
</g>
<path d="M158.291 97H166.857V95.0121H160.663V91.4389H166.364V89.451H160.663V85.897H166.805V83.9091H158.291V97ZM171.436 91.2472C171.436 89.8281 172.293 89.0099 173.514 89.0099C174.709 89.0099 175.425 89.7962 175.425 91.1065V97H177.739V90.7486C177.745 88.3963 176.403 87.054 174.377 87.054C172.907 87.054 171.897 87.7571 171.449 88.8501H171.334V87.1818H169.123V97H171.436V91.2472ZM184.438 97.1918C186.726 97.1918 188.299 96.0732 188.708 94.3665L186.547 94.1236C186.234 94.9545 185.467 95.3892 184.47 95.3892C182.974 95.3892 181.983 94.4048 181.964 92.7237H188.804V92.0142C188.804 88.5689 186.733 87.054 184.316 87.054C181.504 87.054 179.669 89.1186 179.669 92.1484C179.669 95.2294 181.478 97.1918 184.438 97.1918ZM181.971 91.1641C182.041 89.9112 182.968 88.8565 184.348 88.8565C185.678 88.8565 186.573 89.8281 186.586 91.1641H181.971ZM190.761 97H193.075V91.228C193.075 89.9815 194.015 89.0994 195.287 89.0994C195.677 89.0994 196.162 89.1697 196.361 89.2337V87.1051C196.15 87.0668 195.785 87.0412 195.53 87.0412C194.405 87.0412 193.465 87.6804 193.107 88.8182H193.005V87.1818H190.761V97ZM201.763 100.848C204.416 100.848 206.372 99.6335 206.372 97.1598V87.1818H204.09V88.8054H203.962C203.611 88.0959 202.876 87.054 201.143 87.054C198.874 87.054 197.091 88.831 197.091 92.0589C197.091 95.2614 198.874 96.8594 201.137 96.8594C202.818 96.8594 203.604 95.9581 203.962 95.2358H204.077V97.0959C204.077 98.5021 203.119 99.0966 201.802 99.0966C200.408 99.0966 199.795 98.4382 199.513 97.9013L197.43 98.4062C197.852 99.7422 199.264 100.848 201.763 100.848ZM201.783 95.044C200.255 95.044 199.45 93.8551 199.45 92.0462C199.45 90.2628 200.242 88.9524 201.783 88.9524C203.272 88.9524 204.09 90.1861 204.09 92.0462C204.09 93.919 203.259 95.044 201.783 95.044ZM210.182 100.663C211.984 100.663 213.026 99.7294 213.582 98.1889L217.526 87.1946L215.053 87.1818L212.783 94.5966H212.681L210.418 87.1818H207.964L211.524 97.2045L211.326 97.7351C210.885 98.8217 210.22 98.9048 209.21 98.6172L208.673 100.413C208.987 100.548 209.549 100.663 210.182 100.663ZM235.397 90.4545C235.397 86.223 232.814 83.7301 229.382 83.7301C225.943 83.7301 223.367 86.223 223.367 90.4545C223.367 94.6797 225.943 97.179 229.382 97.179C232.814 97.179 235.397 94.6861 235.397 90.4545ZM233.013 90.4545C233.013 93.4332 231.517 95.0504 229.382 95.0504C227.253 95.0504 225.751 93.4332 225.751 90.4545C225.751 87.4759 227.253 85.8587 229.382 85.8587C231.517 85.8587 233.013 87.4759 233.013 90.4545ZM237.537 100.682H239.85V95.4531H239.946C240.311 96.169 241.071 97.1726 242.759 97.1726C245.073 97.1726 246.805 95.3381 246.805 92.1037C246.805 88.831 245.022 87.054 242.752 87.054C241.02 87.054 240.298 88.0959 239.946 88.8054H239.812V87.1818H237.537V100.682ZM239.806 92.0909C239.806 90.1861 240.624 88.9524 242.113 88.9524C243.654 88.9524 244.446 90.2628 244.446 92.0909C244.446 93.9318 243.641 95.2741 242.113 95.2741C240.637 95.2741 239.806 93.9957 239.806 92.0909ZM253.689 87.1818H251.752V84.8295H249.439V87.1818H248.045V88.9716H249.439V94.4304C249.426 96.2777 250.768 97.1854 252.507 97.1342C253.165 97.1151 253.619 96.9872 253.868 96.9041L253.478 95.0952C253.35 95.1271 253.088 95.1847 252.801 95.1847C252.219 95.1847 251.752 94.9801 251.752 94.0469V88.9716H253.689V87.1818ZM255.624 97H257.938V87.1818H255.624V97ZM256.788 85.7884C257.523 85.7884 258.124 85.2259 258.124 84.5355C258.124 83.8388 257.523 83.2763 256.788 83.2763C256.046 83.2763 255.445 83.8388 255.445 84.5355C255.445 85.2259 256.046 85.7884 256.788 85.7884ZM260.318 97H262.632V91.0298C262.632 89.8217 263.437 89.0036 264.434 89.0036C265.412 89.0036 266.083 89.6619 266.083 90.6719V97H268.353V90.8764C268.353 89.7706 269.011 89.0036 270.13 89.0036C271.063 89.0036 271.804 89.5533 271.804 90.7678V97H274.125V90.4098C274.125 88.2173 272.859 87.054 271.056 87.054C269.631 87.054 268.544 87.7571 268.11 88.8501H268.007C267.63 87.7379 266.678 87.054 265.355 87.054C264.038 87.054 263.054 87.7315 262.645 88.8501H262.529V87.1818H260.318V97ZM276.472 97H278.786V87.1818H276.472V97ZM277.635 85.7884C278.371 85.7884 278.971 85.2259 278.971 84.5355C278.971 83.8388 278.371 83.2763 277.635 83.2763C276.894 83.2763 276.293 83.8388 276.293 84.5355C276.293 85.2259 276.894 85.7884 277.635 85.7884ZM281.038 97H289.098V95.0824H284.112V94.9993L288.932 88.7607V87.1818H281.204V89.0994H286.1V89.1825L281.038 95.5298V97ZM295.338 97.1918C297.627 97.1918 299.199 96.0732 299.608 94.3665L297.448 94.1236C297.134 94.9545 296.367 95.3892 295.37 95.3892C293.874 95.3892 292.884 94.4048 292.865 92.7237H299.704V92.0142C299.704 88.5689 297.633 87.054 295.217 87.054C292.404 87.054 290.57 89.1186 290.57 92.1484C290.57 95.2294 292.379 97.1918 295.338 97.1918ZM292.871 91.1641C292.941 89.9112 293.868 88.8565 295.249 88.8565C296.578 88.8565 297.473 89.8281 297.486 91.1641H292.871ZM301.662 97H303.975V91.228C303.975 89.9815 304.915 89.0994 306.187 89.0994C306.577 89.0994 307.063 89.1697 307.261 89.2337V87.1051C307.05 87.0668 306.686 87.0412 306.43 87.0412C305.305 87.0412 304.365 87.6804 304.007 88.8182H303.905V87.1818H301.662V97Z" fill="#262B35"/>
<rect opacity="0.6" x="72" y="62.5" width="55" height="55" rx="24" fill="#F1C1C9"/>
<path fill-rule="evenodd" clip-rule="evenodd" d="M99.5 71.5532C94.1471 71.5532 89.091 74.1045 85.7188 78.2207V77.0297C85.7188 76.4322 85.247 75.9488 84.6641 75.9488C84.0811 75.9488 83.6094 76.4322 83.6094 77.0297V81.6213C83.6094 82.6528 84.9095 82.8005 84.6641 82.7022C84.6843 82.7022 84.7045 82.7012 84.7248 82.7003L84.7248 82.7003L84.729 82.7001L88.9477 82.432C89.5296 82.395 89.9715 81.882 89.9355 81.2867C89.8994 80.6913 89.3917 80.2427 88.8179 80.2744L86.6808 80.4106C89.641 76.2839 94.4305 73.715 99.5 73.715C108.224 73.715 115.391 81.0597 115.391 90.0002C115.391 90.5976 115.862 91.0811 116.445 91.0811C117.028 91.0811 117.5 90.5976 117.5 90.0002C117.5 79.868 109.387 71.5532 99.5 71.5532ZM106.855 89.7523C106.771 89.3871 106.509 89.0936 106.162 88.9755L100.987 87.2075L104.662 79.6753C104.893 79.2014 104.755 78.6251 104.336 78.3147C103.915 78.0055 103.338 78.0519 102.973 78.4276L92.4263 89.2362C92.1678 89.5011 92.0617 89.8842 92.1452 90.2484C92.2296 90.6136 92.4912 90.9071 92.8383 91.0253L98.0129 92.7933L94.3379 100.325C94.1072 100.799 94.2452 101.376 94.6645 101.686C95.0843 101.994 95.6599 101.949 96.0271 101.573L106.574 90.7646C106.833 90.4996 106.939 90.1165 106.855 89.7523ZM110.052 97.568L114.271 97.2999C114.835 97.2673 115.391 97.7849 115.391 98.3787V102.97C115.391 103.568 114.919 104.051 114.336 104.051C113.753 104.051 113.281 103.568 113.281 102.97V101.779C109.909 105.895 104.853 108.447 99.5 108.447C89.6134 108.447 81.5 100.132 81.5 89.9998C81.5 89.4024 81.9717 88.9189 82.5547 88.9189C83.1376 88.9189 83.6094 89.4024 83.6094 89.9998C83.6094 98.9403 90.7762 106.285 99.5 106.285C104.57 106.285 109.359 103.716 112.319 99.5894L110.182 99.7256C109.62 99.7626 109.101 99.3087 109.065 98.7133C109.028 98.118 109.47 97.605 110.052 97.568Z" fill="#D62642"/>
<defs>
<filter id="filter0_d" x="0" y="0" width="456" height="192" filterUnits="userSpaceOnUse" color-interpolation-filters="sRGB">
<feFlood flood-opacity="0" result="BackgroundImageFix"/>
<feColorMatrix in="SourceAlpha" type="matrix" values="0 0 0 0 0 0 0 0 0 0 0 0 0 0 0 0 0 0 127 0" result="hardAlpha"/>
<feOffset dy="6"/>
<feGaussianBlur stdDeviation="24"/>
<feColorMatrix type="matrix" values="0 0 0 0 0 0 0 0 0 0 0 0 0 0 0 0 0 0 0.1 0"/>
<feBlend mode="normal" in2="BackgroundImageFix" result="effect1_dropShadow"/>
<feBlend mode="normal" in="SourceGraphic" in2="effect1_dropShadow" result="shape"/>
</filter>
</defs>
</svg>
